<?xml version="1.0" encoding="UTF-8"?>
<svg id="Ebene_1" data-name="Ebene 1" xmlns="http://www.w3.org/2000/svg" viewBox="0 0 775.08 263.74">
  <defs>
    <style>
      .cls-1 {
        fill: #000;
      }

      .cls-1, .cls-2, .cls-3, .cls-4, .cls-5, .cls-6, .cls-7 {
        stroke-width: 0px;
      }

      .cls-2 {
        fill: #b46816;
      }

      .cls-3 {
        fill: #e18311;
      }

      .cls-4 {
        fill: #242959;
      }

      .cls-5 {
        fill: #7c4012;
      }

      .cls-6 {
        fill: #424a78;
      }

      .cls-7 {
        fill: #232b59;
      }
    </style>
  </defs>
  <g>
    <g>
      <path class="cls-5" d="M160.65,25.92c-.56,0-1.02-.46-1.02-1.02v-11c0-.56.46-1.02,1.02-1.02s1.02.46,1.02,1.02v11c0,.56-.46,1.02-1.02,1.02Z"/>
      <path class="cls-5" d="M163.52,17.9h-5.73c-.56,0-1.02-.46-1.02-1.02s.46-1.02,1.02-1.02h5.73c.56,0,1.02.46,1.02,1.02s-.46,1.02-1.02,1.02Z"/>
      <polygon class="cls-2" points="171.56 47.4 149.74 47.4 149.74 34.62 171.56 34.56 171.56 47.4"/>
      <circle class="cls-2" cx="160.65" cy="35.18" r="10.91"/>
      <polygon class="cls-3" points="56.54 154.96 56.27 158.74 22.28 161.13 22.28 153.81 56.54 154.96"/>
      <polygon class="cls-3" points="184.94 107.44 176.61 107.44 182.95 122.43 186.84 107.44 184.94 107.44"/>
      <path class="cls-3" d="M221.31,133.33c.8.64,1.53,1.24,2.24,1.83v-31.58h-40.2v26.28s19.5-11.23,37.96,3.47Z"/>
      <path class="cls-2" d="M118.73,96.72s10.84-1.58,24.38,1.86l-28.7-44.75H47.95l-25.67,50.53h70.9c7.05-3.83,15.48-6.6,25.55-7.64Z"/>
      <g>
        <path class="cls-3" d="M93.76,104.36H22.28v52.5h35.99c1.5-8.5,8.58-38.18,35.49-52.5Z"/>
        <path class="cls-3" d="M191.53,71.64c-.92-16.26-14.39-29.16-30.88-29.16s-30.06,12.99-30.89,29.32h-.04v24.91c8.9.53,21.98,2.95,34.17,11.36h27.7v-36.44h-.05Z"/>
      </g>
      <path class="cls-3" d="M201.16,3.74l-16.53,97.62c-.22,1.32.8,2.53,2.14,2.53h33.05c1.34,0,2.36-1.21,2.14-2.53L205.44,3.74c-.41-2.41-3.87-2.41-4.28,0Z"/>
      <path class="cls-2" d="M190.33,44.69l-6.99,58.89h16.48l-6.99-58.89c-.18-1.48-2.33-1.48-2.5,0Z"/>
      <path class="cls-2" d="M214.05,44.69l-6.99,58.89h16.48l-6.99-58.89c-.18-1.48-2.33-1.48-2.5,0Z"/>
      <circle class="cls-5" cx="203.71" cy="53.16" r="4.47"/>
      <circle class="cls-5" cx="191.59" cy="45.25" r="2.11"/>
      <circle class="cls-5" cx="215.3" cy="45.25" r="2.11"/>
      <g>
        <polygon class="cls-6" points="113 141.91 136 141.91 131.88 263.74 113 141.91"/>
        <path class="cls-3" d="M102.63,238.81h-28.13c-1.08,0-2.05.64-2.47,1.63l-8.96,21.04c-.59,1.37-1.93,2.27-3.43,2.27h-17.74c-2.74,0-4.54-2.86-3.36-5.33l54.52-114.38c.62-1.3,1.93-2.12,3.36-2.12h19.65l15.98,121.83h-21.42c-1.94,0-3.55-1.48-3.71-3.42l-1.6-19.06c-.12-1.39-1.28-2.46-2.68-2.46ZM84.02,218.31h17.61c.97,0,1.73-.83,1.66-1.79l-2.76-34.68c-.14-1.73-2.5-2.12-3.18-.52l-14.85,34.68c-.47,1.1.33,2.31,1.53,2.31Z"/>
        <path class="cls-4" d="M131.88,263.74l-.04-121.83h32.22c14.22-.02,25.56,4.5,34.02,13.53,8.45,9.03,12.77,21.42,12.94,37.15v19.75c.01,16.01-4.21,28.58-12.66,37.7-8.45,9.12-20.09,13.69-34.93,13.69h-31.55ZM156.44,164.83l.03,76.06c0,1.34,1.09,2.43,2.43,2.43h4.94c8.2,0,13.97-2.17,17.32-6.49,3.35-4.32,5.1-11.79,5.26-22.38v-21.17c-.01-11.38-1.6-19.31-4.78-23.8-3.18-4.49-8.59-6.84-16.24-7.07h-6.53c-1.34,0-2.43,1.09-2.43,2.43Z"/>
      </g>
      <path class="cls-7" d="M225.09,120.77c.1.05.26.14.26.14-3.52-2.19-7.28-4.02-11.38-4.82-10.5-2.56-23.1.97-29.17,10.04-1.95-14.62-11.65-27.69-24.04-35.56-12.96-8.25-28.45-11.93-43.8-11-12.7,1.3-25.06,5.21-35.69,12.8-20.69,14.24-32.22,41.74-25.81,66.1-12.11-5.94-27.57-4.47-38.63,3.3-12,8.32-19.3,23.53-16.04,37.87l.84.13c.64-3.07,1.64-6.11,2.86-9.02,5.64-14.77,18.73-26.48,34.41-29.25,6.2-1.24,12.63-1.3,18.92-.85,0,0,0,0,0,0h.02c.86-7.13,2.89-14.23,5.64-20.89,7.94-20.24,25.23-36.2,46.69-40.71,6.92-1.81,14.17-2.26,21.3-1.58,21.64,1.54,42.26,13.48,52.04,33.35,0,0,.08-.04.2-.1,5.41-2.62,11.64-3.92,17.64-3.66,6.11.1,11.95,2.12,17.22,5.14,2.03,1.06,4.04,2.66,5.67,4.46,2.87,3.11,4.86,7.05,5.78,11.17.1.58.37,2.17.48,2.72.04.62.17,2.12.21,2.77.04,1.24-.05,2.48-.07,3.73,0,0,1.32.15,1.32.15,2.1-2.02,3.6-4.51,4.66-7.2,3.87-10.89-1.77-23.41-11.52-29.21Z"/>
    </g>
    <circle class="cls-5" cx="203.3" cy="2.62" r="2.62"/>
  </g>
  <g>
    <g>
      <path class="cls-7" d="M353.85,90.76h-10.4c-1.17,0-2.12-.29-2.88-.88-.75-.58-1.29-1.31-1.62-2.17l-5.4-14.75h-29.95l-5.4,14.75c-.27.77-.79,1.47-1.58,2.1-.78.63-1.74.95-2.88.95h-10.45l28.4-72.3h13.75l28.4,72.3ZM307.05,63.46h23.05l-8.8-24.05c-.4-1.07-.84-2.32-1.33-3.77s-.96-3.02-1.42-4.73c-.47,1.7-.92,3.28-1.38,4.75-.45,1.47-.89,2.75-1.33,3.85l-8.8,23.95Z"/>
      <path class="cls-7" d="M400.79,90.76h-5.55c-1.17,0-2.08-.17-2.75-.52-.67-.35-1.17-1.06-1.5-2.12l-1.1-3.65c-1.3,1.17-2.58,2.19-3.83,3.07-1.25.88-2.54,1.62-3.88,2.23-1.33.6-2.75,1.05-4.25,1.35-1.5.3-3.17.45-5,.45-2.17,0-4.17-.29-6-.88-1.83-.59-3.41-1.46-4.73-2.63s-2.34-2.63-3.07-4.36c-.73-1.74-1.1-3.76-1.1-6.07,0-1.94.51-3.85,1.53-5.74,1.02-1.89,2.71-3.59,5.08-5.12,2.37-1.52,5.52-2.78,9.45-3.79,3.93-1,8.82-1.51,14.65-1.51v-3.02c0-3.46-.72-6.02-2.17-7.68s-3.56-2.49-6.33-2.49c-2,0-3.67.23-5,.7-1.33.47-2.49.99-3.47,1.57-.98.58-1.89,1.11-2.73,1.58-.83.47-1.75.7-2.75.7-.83,0-1.55-.22-2.15-.65-.6-.43-1.08-.97-1.45-1.6l-2.25-3.95c5.9-5.4,13.02-8.1,21.35-8.1,3,0,5.67.49,8.03,1.48,2.35.98,4.34,2.35,5.97,4.1,1.63,1.75,2.88,3.84,3.73,6.27.85,2.43,1.27,5.1,1.27,8v32.4ZM376.79,83.06c1.27,0,2.43-.11,3.5-.34,1.07-.23,2.08-.57,3.03-1.03s1.87-1.02,2.75-1.7c.88-.67,1.77-1.47,2.67-2.39v-8.59c-3.6,0-6.61.23-9.03.68s-4.36,1.03-5.82,1.74c-1.47.71-2.51,1.53-3.12,2.47-.62.94-.93,1.96-.93,3.07,0,2.18.64,3.74,1.93,4.68,1.28.94,2.96,1.41,5.02,1.41Z"/>
      <path class="cls-7" d="M449,50.31c-.37.47-.73.83-1.08,1.1-.35.27-.86.4-1.53.4s-1.25-.19-1.85-.57c-.6-.38-1.32-.82-2.15-1.3-.83-.48-1.83-.92-2.97-1.3-1.15-.38-2.58-.58-4.28-.58-2.17,0-4.07.39-5.7,1.18-1.63.78-2.99,1.91-4.07,3.38-1.08,1.47-1.89,3.24-2.43,5.32-.53,2.08-.8,4.44-.8,7.08s.29,5.17.88,7.3c.58,2.13,1.42,3.93,2.53,5.38,1.1,1.45,2.43,2.55,4,3.3,1.57.75,3.33,1.12,5.3,1.12s3.56-.24,4.78-.73c1.22-.48,2.24-1.02,3.07-1.6.83-.58,1.56-1.12,2.18-1.6.62-.48,1.31-.72,2.07-.72,1,0,1.75.38,2.25,1.15l3.55,4.5c-1.37,1.6-2.85,2.94-4.45,4.02-1.6,1.08-3.26,1.95-4.98,2.6s-3.49,1.11-5.32,1.38c-1.83.27-3.65.4-5.45.4-3.17,0-6.15-.59-8.95-1.77-2.8-1.18-5.24-2.91-7.33-5.18-2.08-2.27-3.73-5.04-4.95-8.32-1.22-3.28-1.82-7.02-1.82-11.23,0-3.77.54-7.26,1.62-10.48,1.08-3.22,2.67-6,4.77-8.35,2.1-2.35,4.7-4.19,7.8-5.52,3.1-1.33,6.67-2,10.7-2s7.19.62,10.08,1.85c2.88,1.23,5.47,3,7.78,5.3l-3.25,4.5Z"/>
      <path class="cls-7" d="M460.64,90.76V16.46h12.35v28.55c2-1.9,4.2-3.43,6.6-4.6,2.4-1.17,5.22-1.75,8.45-1.75,2.8,0,5.28.48,7.45,1.43,2.17.95,3.97,2.28,5.42,4s2.55,3.77,3.3,6.15c.75,2.38,1.12,5.01,1.12,7.88v32.65h-12.35v-32.65c0-3.13-.73-5.56-2.17-7.27-1.45-1.72-3.62-2.58-6.53-2.58-2.13,0-4.13.48-6,1.45-1.87.97-3.63,2.28-5.3,3.95v37.1h-12.35Z"/>
      <path class="cls-7" d="M538.69,38.66c3.23,0,6.21.52,8.92,1.55s5.06,2.54,7.03,4.52c1.97,1.98,3.5,4.42,4.6,7.3,1.1,2.88,1.65,6.18,1.65,9.88,0,.93-.04,1.71-.12,2.33-.08.62-.23,1.1-.45,1.45-.22.35-.51.6-.88.75-.37.15-.83.23-1.4.23h-31.7c.37,5.27,1.78,9.13,4.25,11.6,2.47,2.47,5.73,3.7,9.8,3.7,2,0,3.72-.23,5.17-.7,1.45-.47,2.72-.98,3.8-1.55,1.08-.57,2.03-1.08,2.85-1.55.82-.47,1.61-.7,2.38-.7.5,0,.93.1,1.3.3.37.2.68.48.95.85l3.6,4.5c-1.37,1.6-2.9,2.94-4.6,4.02-1.7,1.08-3.48,1.95-5.33,2.6s-3.73,1.11-5.65,1.38c-1.92.27-3.77.4-5.57.4-3.57,0-6.88-.59-9.95-1.77-3.07-1.18-5.73-2.93-8-5.25-2.27-2.32-4.05-5.18-5.35-8.6-1.3-3.42-1.95-7.38-1.95-11.88,0-3.5.57-6.79,1.7-9.88,1.13-3.08,2.76-5.77,4.88-8.05s4.7-4.09,7.75-5.43c3.05-1.33,6.49-2,10.33-2ZM538.94,47.51c-3.6,0-6.42,1.02-8.45,3.05-2.03,2.03-3.33,4.92-3.9,8.65h23.2c0-1.6-.22-3.11-.65-4.53-.43-1.42-1.1-2.66-2-3.72-.9-1.07-2.03-1.91-3.4-2.53-1.37-.62-2.97-.92-4.8-.92Z"/>
      <path class="cls-7" d="M570.94,90.76v-51.3h7.55c1.6,0,2.65.75,3.15,2.25l.85,4.05c1.03-1.07,2.12-2.03,3.27-2.9,1.15-.87,2.37-1.62,3.65-2.25,1.28-.63,2.66-1.12,4.12-1.45,1.47-.33,3.07-.5,4.8-.5,2.8,0,5.28.48,7.45,1.43,2.17.95,3.97,2.28,5.42,4s2.55,3.77,3.3,6.15c.75,2.38,1.12,5.01,1.12,7.88v32.65h-12.35v-32.65c0-3.13-.73-5.56-2.17-7.27-1.45-1.72-3.62-2.58-6.53-2.58-2.13,0-4.13.48-6,1.45-1.87.97-3.63,2.28-5.3,3.95v37.1h-12.35Z"/>
      <path class="cls-7" d="M648.99,38.66c3.23,0,6.21.52,8.92,1.55s5.06,2.54,7.03,4.52c1.97,1.98,3.5,4.42,4.6,7.3,1.1,2.88,1.65,6.18,1.65,9.88,0,.93-.04,1.71-.12,2.33-.08.62-.23,1.1-.45,1.45-.22.35-.51.6-.88.75-.37.15-.83.23-1.4.23h-31.7c.37,5.27,1.78,9.13,4.25,11.6,2.47,2.47,5.73,3.7,9.8,3.7,2,0,3.72-.23,5.17-.7,1.45-.47,2.72-.98,3.8-1.55,1.08-.57,2.03-1.08,2.85-1.55.82-.47,1.61-.7,2.38-.7.5,0,.93.1,1.3.3.37.2.68.48.95.85l3.6,4.5c-1.37,1.6-2.9,2.94-4.6,4.02-1.7,1.08-3.48,1.95-5.33,2.6s-3.73,1.11-5.65,1.38c-1.92.27-3.77.4-5.57.4-3.57,0-6.88-.59-9.95-1.77-3.07-1.18-5.73-2.93-8-5.25-2.27-2.32-4.05-5.18-5.35-8.6-1.3-3.42-1.95-7.38-1.95-11.88,0-3.5.57-6.79,1.7-9.88,1.13-3.08,2.76-5.77,4.88-8.05s4.7-4.09,7.75-5.43c3.05-1.33,6.49-2,10.33-2ZM649.24,47.51c-3.6,0-6.42,1.02-8.45,3.05-2.03,2.03-3.33,4.92-3.9,8.65h23.2c0-1.6-.22-3.11-.65-4.53-.43-1.42-1.1-2.66-2-3.72-.9-1.07-2.03-1.91-3.4-2.53-1.37-.62-2.97-.92-4.8-.92Z"/>
      <path class="cls-7" d="M681.24,90.76v-51.3h7.25c1.27,0,2.15.23,2.65.7.5.47.83,1.27,1,2.4l.75,6.2c1.83-3.17,3.98-5.67,6.45-7.5,2.47-1.83,5.23-2.75,8.3-2.75,2.53,0,4.63.58,6.3,1.75l-1.6,9.25c-.1.6-.32,1.02-.65,1.27s-.78.38-1.35.38c-.5,0-1.18-.12-2.05-.35-.87-.23-2.02-.35-3.45-.35-2.57,0-4.77.71-6.6,2.12-1.83,1.42-3.38,3.49-4.65,6.22v31.95h-12.35Z"/>
    </g>
    <g>
      <path class="cls-3" d="M352.86,141.88c0,5.67-.95,10.88-2.83,15.62-1.89,4.74-4.55,8.83-7.97,12.25-3.42,3.42-7.54,6.08-12.36,7.97-4.82,1.89-10.15,2.84-16,2.84h-29.53v-77.36h29.53c5.85,0,11.18.95,16,2.86,4.81,1.91,8.93,4.57,12.36,7.97,3.42,3.41,6.08,7.48,7.97,12.22,1.89,4.74,2.83,9.95,2.83,15.62ZM338.15,141.88c0-4.24-.57-8.05-1.71-11.42-1.14-3.37-2.76-6.22-4.87-8.56-2.1-2.34-4.66-4.13-7.68-5.38-3.01-1.25-6.41-1.87-10.19-1.87h-15.03v54.46h15.03c3.78,0,7.18-.62,10.19-1.87,3.01-1.25,5.57-3.04,7.68-5.38,2.1-2.34,3.73-5.19,4.87-8.56s1.71-7.18,1.71-11.42Z"/>
      <path class="cls-3" d="M406.41,180.56h-5.94c-1.25,0-2.23-.19-2.94-.56-.71-.37-1.25-1.13-1.61-2.27l-1.18-3.91c-1.39,1.25-2.75,2.35-4.09,3.29-1.34.95-2.72,1.74-4.15,2.38-1.43.64-2.94,1.12-4.55,1.44-1.61.32-3.39.48-5.35.48-2.32,0-4.46-.31-6.42-.94-1.96-.63-3.65-1.57-5.06-2.82-1.41-1.25-2.51-2.81-3.29-4.67-.79-1.86-1.18-4.03-1.18-6.5,0-2.08.54-4.12,1.63-6.15,1.09-2.02,2.9-3.85,5.43-5.47,2.53-1.63,5.9-2.98,10.11-4.05,4.21-1.07,9.43-1.61,15.68-1.61v-3.23c0-3.7-.78-6.44-2.33-8.22s-3.81-2.67-6.77-2.67c-2.14,0-3.92.25-5.35.75-1.43.5-2.67,1.06-3.72,1.69-1.05.62-2.03,1.19-2.92,1.69-.89.5-1.87.75-2.94.75-.89,0-1.66-.23-2.3-.7-.64-.46-1.16-1.03-1.55-1.71l-2.41-4.23c6.31-5.78,13.93-8.67,22.84-8.67,3.21,0,6.07.53,8.59,1.58,2.51,1.05,4.65,2.51,6.39,4.39s3.08,4.11,3.99,6.71c.91,2.6,1.36,5.46,1.36,8.56v34.67ZM380.73,172.32c1.35,0,2.6-.12,3.74-.37,1.14-.25,2.22-.61,3.24-1.11,1.02-.49,2-1.1,2.94-1.82.94-.72,1.9-1.57,2.86-2.55v-9.19c-3.85,0-7.07.24-9.66.73s-4.66,1.11-6.23,1.86c-1.57.75-2.68,1.64-3.34,2.64-.66,1.01-.99,2.1-.99,3.29,0,2.34.69,4.01,2.06,5.01,1.37,1.01,3.17,1.51,5.38,1.51Z"/>
      <path class="cls-3" d="M437.44,181.42c-4.74,0-8.4-1.35-10.97-4.04-2.57-2.69-3.85-6.41-3.85-11.15v-30.66h-5.56c-.71,0-1.33-.23-1.85-.7-.52-.46-.78-1.16-.78-2.09v-5.24l8.83-1.44,2.78-14.98c.14-.71.47-1.27.99-1.66.52-.39,1.17-.59,1.95-.59h6.85v17.28h14.45v9.42h-14.45v29.75c0,1.71.43,3.05,1.28,4.01.86.96,2,1.44,3.42,1.44.82,0,1.51-.1,2.06-.29.55-.2,1.03-.4,1.45-.62.41-.21.78-.42,1.1-.62.32-.2.64-.29.96-.29.39,0,.71.1.96.29.25.2.52.49.8.88l3.96,6.42c-1.93,1.6-4.14,2.82-6.63,3.64s-5.08,1.23-7.76,1.23Z"/>
      <path class="cls-3" d="M483.51,124.81c3.46,0,6.64.55,9.55,1.66,2.91,1.11,5.41,2.72,7.52,4.84,2.1,2.12,3.75,4.73,4.92,7.81,1.18,3.09,1.77,6.61,1.77,10.57,0,1-.04,1.83-.13,2.49-.09.66-.25,1.18-.48,1.55-.23.37-.54.64-.94.8s-.89.24-1.5.24h-33.92c.39,5.64,1.91,9.77,4.55,12.41,2.64,2.64,6.13,3.96,10.49,3.96,2.14,0,3.99-.25,5.54-.75,1.55-.5,2.91-1.05,4.07-1.66,1.16-.61,2.18-1.16,3.05-1.66.87-.5,1.72-.75,2.54-.75.54,0,1,.11,1.39.32.39.21.73.52,1.02.91l3.85,4.81c-1.46,1.71-3.1,3.15-4.92,4.31-1.82,1.16-3.72,2.09-5.7,2.78-1.98.7-4,1.19-6.04,1.47-2.05.29-4.04.43-5.97.43-3.82,0-7.37-.63-10.65-1.9s-6.13-3.14-8.56-5.62c-2.43-2.48-4.33-5.55-5.72-9.2-1.39-3.66-2.09-7.89-2.09-12.71,0-3.75.61-7.27,1.82-10.57,1.21-3.3,2.95-6.17,5.22-8.61,2.26-2.44,5.03-4.38,8.29-5.8,3.26-1.43,6.95-2.14,11.05-2.14ZM483.77,134.28c-3.85,0-6.87,1.09-9.04,3.26-2.18,2.18-3.57,5.26-4.17,9.26h24.82c0-1.71-.23-3.33-.7-4.84-.46-1.52-1.18-2.84-2.14-3.99-.96-1.14-2.18-2.04-3.64-2.7-1.46-.66-3.17-.99-5.14-.99Z"/>
      <path class="cls-3" d="M518.01,180.56v-54.89h8.08c1.71,0,2.83.8,3.37,2.41l.91,4.33c1.1-1.14,2.27-2.18,3.5-3.1,1.23-.93,2.53-1.73,3.91-2.41,1.37-.68,2.84-1.19,4.41-1.55,1.57-.36,3.28-.54,5.14-.54,3,0,5.65.51,7.97,1.52,2.32,1.02,4.25,2.44,5.8,4.28,1.55,1.84,2.73,4.03,3.53,6.58.8,2.55,1.2,5.36,1.2,8.43v34.94h-13.21v-34.94c0-3.35-.78-5.95-2.33-7.78-1.55-1.84-3.88-2.76-6.98-2.76-2.28,0-4.42.52-6.42,1.55-2,1.03-3.89,2.44-5.67,4.23v39.7h-13.21Z"/>
      <path class="cls-3" d="M578.84,198.48v-72.81h8.08c.86,0,1.59.2,2.19.59.61.39,1,1,1.18,1.82l1.07,5.08c2.21-2.53,4.75-4.58,7.62-6.15,2.87-1.57,6.23-2.35,10.08-2.35,3,0,5.73.62,8.21,1.87,2.48,1.25,4.62,3.06,6.42,5.43,1.8,2.37,3.19,5.3,4.17,8.77.98,3.48,1.47,7.46,1.47,11.96,0,4.1-.55,7.9-1.66,11.4-1.11,3.5-2.68,6.53-4.73,9.1-2.05,2.57-4.53,4.57-7.44,6.02-2.91,1.44-6.16,2.17-9.76,2.17-3.1,0-5.73-.47-7.89-1.42s-4.09-2.26-5.8-3.93v22.47h-13.21ZM604.52,135.09c-2.75,0-5.09.58-7.04,1.74-1.94,1.16-3.75,2.79-5.43,4.9v24.61c1.5,1.85,3.13,3.15,4.9,3.88,1.77.73,3.67,1.1,5.7,1.1s3.81-.37,5.43-1.12c1.62-.75,3-1.89,4.12-3.42,1.12-1.53,1.99-3.47,2.59-5.8.61-2.34.91-5.09.91-8.27s-.26-5.93-.78-8.16c-.52-2.23-1.26-4.04-2.22-5.43s-2.13-2.41-3.5-3.05c-1.37-.64-2.93-.96-4.68-.96Z"/>
      <path class="cls-3" d="M662.78,124.81c4.1,0,7.82.66,11.15,1.98,3.33,1.32,6.18,3.19,8.53,5.62,2.35,2.43,4.17,5.39,5.46,8.88,1.28,3.5,1.93,7.4,1.93,11.72s-.64,8.28-1.93,11.77c-1.28,3.5-3.1,6.47-5.46,8.93-2.35,2.46-5.2,4.35-8.53,5.67-3.33,1.32-7.05,1.98-11.15,1.98s-7.83-.66-11.18-1.98c-3.35-1.32-6.21-3.21-8.59-5.67s-4.21-5.44-5.51-8.93c-1.3-3.49-1.95-7.42-1.95-11.77s.65-8.22,1.95-11.72c1.3-3.5,3.14-6.46,5.51-8.88,2.37-2.43,5.23-4.3,8.59-5.62,3.35-1.32,7.08-1.98,11.18-1.98ZM662.78,171.2c4.56,0,7.94-1.53,10.14-4.6,2.19-3.07,3.29-7.56,3.29-13.48s-1.1-10.43-3.29-13.54c-2.19-3.1-5.57-4.65-10.14-4.65s-8.06,1.56-10.27,4.68c-2.21,3.12-3.32,7.62-3.32,13.51s1.1,10.37,3.32,13.46c2.21,3.09,5.64,4.63,10.27,4.63Z"/>
      <path class="cls-3" d="M723.61,124.81c4.1,0,7.82.66,11.15,1.98,3.33,1.32,6.18,3.19,8.53,5.62,2.35,2.43,4.17,5.39,5.46,8.88,1.28,3.5,1.93,7.4,1.93,11.72s-.64,8.28-1.93,11.77c-1.28,3.5-3.1,6.47-5.46,8.93-2.35,2.46-5.2,4.35-8.53,5.67-3.33,1.32-7.05,1.98-11.15,1.98s-7.83-.66-11.18-1.98c-3.35-1.32-6.21-3.21-8.59-5.67s-4.21-5.44-5.51-8.93c-1.3-3.49-1.95-7.42-1.95-11.77s.65-8.22,1.95-11.72c1.3-3.5,3.14-6.46,5.51-8.88,2.37-2.43,5.23-4.3,8.59-5.62,3.35-1.32,7.08-1.98,11.18-1.98ZM723.61,171.2c4.56,0,7.94-1.53,10.14-4.6,2.19-3.07,3.29-7.56,3.29-13.48s-1.1-10.43-3.29-13.54c-2.19-3.1-5.57-4.65-10.14-4.65s-8.06,1.56-10.27,4.68c-2.21,3.12-3.32,7.62-3.32,13.51s1.1,10.37,3.32,13.46c2.21,3.09,5.64,4.63,10.27,4.63Z"/>
      <path class="cls-3" d="M775.08,101.06v79.5h-13.21v-79.5h13.21Z"/>
    </g>
    <g>
      <path class="cls-1" d="M295.81,212.85v2.43h-4.79v13.48h-2.96v-13.48h-4.81v-2.43h12.55Z"/>
      <path class="cls-1" d="M299.96,217.29c.71,0,1.37.11,1.96.34.6.23,1.11.56,1.55,1,.43.44.77.97,1.01,1.61.24.63.36,1.36.36,2.17,0,.21,0,.38-.03.51-.02.14-.05.24-.1.32-.05.08-.11.13-.19.17-.08.03-.18.05-.31.05h-6.97c.08,1.16.39,2.01.94,2.55.54.54,1.26.81,2.16.81.44,0,.82-.05,1.14-.15s.6-.22.84-.34c.24-.12.45-.24.63-.34s.35-.15.52-.15c.11,0,.21.02.29.07s.15.11.21.19l.79.99c-.3.35-.64.65-1.01.89s-.76.43-1.17.57c-.41.14-.82.24-1.24.3-.42.06-.83.09-1.23.09-.78,0-1.51-.13-2.19-.39-.67-.26-1.26-.65-1.76-1.15-.5-.51-.89-1.14-1.18-1.89-.29-.75-.43-1.62-.43-2.61,0-.77.12-1.49.37-2.17.25-.68.61-1.27,1.07-1.77.47-.5,1.03-.9,1.71-1.19.67-.29,1.43-.44,2.27-.44ZM300.01,219.24c-.79,0-1.41.22-1.86.67-.45.45-.73,1.08-.86,1.9h5.1c0-.35-.05-.68-.14-1-.1-.31-.24-.58-.44-.82-.2-.23-.45-.42-.75-.56s-.65-.2-1.06-.2Z"/>
      <path class="cls-1" d="M314.98,219.86c-.08.1-.16.18-.24.24-.08.06-.19.09-.34.09s-.27-.04-.41-.13c-.13-.08-.29-.18-.47-.29-.18-.11-.4-.2-.65-.29-.25-.08-.57-.13-.94-.13-.48,0-.89.09-1.25.26-.36.17-.66.42-.9.74s-.42.71-.53,1.17c-.12.46-.18.98-.18,1.56s.06,1.14.19,1.61.31.86.56,1.18c.24.32.54.56.88.73s.73.25,1.17.25.78-.05,1.05-.16.49-.22.68-.35c.18-.13.34-.25.48-.35.14-.11.29-.16.46-.16.22,0,.38.08.49.25l.78.99c-.3.35-.63.65-.98.89s-.72.43-1.09.57c-.38.14-.77.24-1.17.3-.4.06-.8.09-1.2.09-.7,0-1.35-.13-1.97-.39-.62-.26-1.15-.64-1.61-1.14-.46-.5-.82-1.11-1.09-1.83-.27-.72-.4-1.55-.4-2.47,0-.83.12-1.6.36-2.3.24-.71.59-1.32,1.05-1.84s1.03-.92,1.72-1.22,1.47-.44,2.35-.44,1.58.14,2.22.41c.63.27,1.2.66,1.71,1.17l-.72.99Z"/>
      <path class="cls-1" d="M317.55,228.76v-16.35h2.72v6.28c.44-.42.92-.76,1.45-1.01.53-.26,1.15-.38,1.86-.38.62,0,1.16.1,1.64.31.48.21.87.5,1.19.88.32.38.56.83.73,1.35s.25,1.1.25,1.73v7.18h-2.72v-7.18c0-.69-.16-1.22-.48-1.6-.32-.38-.8-.57-1.44-.57-.47,0-.91.11-1.32.32-.41.21-.8.5-1.17.87v8.16h-2.72Z"/>
      <path class="cls-1" d="M330.05,228.76v-11.29h1.66c.35,0,.58.17.69.5l.19.89c.23-.23.47-.45.72-.64.25-.19.52-.36.8-.5.28-.14.58-.25.91-.32s.67-.11,1.06-.11c.62,0,1.16.1,1.64.31.48.21.87.5,1.19.88.32.38.56.83.73,1.35s.25,1.1.25,1.73v7.18h-2.72v-7.18c0-.69-.16-1.22-.48-1.6-.32-.38-.8-.57-1.44-.57-.47,0-.91.11-1.32.32-.41.21-.8.5-1.17.87v8.16h-2.72Z"/>
      <path class="cls-1" d="M345.86,214.18c0,.23-.05.46-.14.66-.1.21-.22.39-.38.54s-.34.28-.56.37c-.21.09-.44.14-.68.14s-.46-.05-.67-.14-.39-.21-.54-.37c-.15-.15-.28-.33-.37-.54-.09-.21-.14-.43-.14-.66s.05-.47.14-.68c.09-.21.21-.4.37-.55s.34-.28.54-.37.43-.14.67-.14.47.05.68.14c.21.09.4.21.56.37.16.15.28.34.38.55.1.21.14.44.14.68ZM345.45,217.47v11.29h-2.72v-11.29h2.72Z"/>
      <path class="cls-1" d="M355.22,219.67c-.07.12-.15.2-.23.25s-.18.07-.31.07c-.13,0-.27-.04-.42-.11s-.32-.16-.52-.25c-.2-.09-.42-.17-.68-.25-.25-.07-.55-.11-.9-.11-.54,0-.96.11-1.26.34-.31.23-.46.52-.46.89,0,.24.08.45.24.61s.37.31.63.43c.26.12.56.24.89.34.33.1.67.21,1.01.32s.68.25,1.01.4.62.34.89.57c.26.23.47.51.63.83.16.32.24.71.24,1.17,0,.54-.1,1.04-.3,1.5-.2.46-.49.85-.87,1.19-.38.33-.85.59-1.41.78s-1.2.28-1.93.28c-.39,0-.77-.03-1.14-.1-.37-.07-.73-.17-1.07-.29-.34-.12-.66-.27-.95-.44-.29-.17-.54-.35-.76-.55l.63-1.03c.08-.12.18-.22.29-.29.11-.07.25-.1.42-.1s.33.05.48.14.32.2.52.31c.2.11.43.21.7.31.27.1.61.14,1.02.14.32,0,.6-.04.83-.12.23-.08.42-.18.57-.3.15-.12.26-.27.33-.43.07-.17.1-.34.1-.51,0-.26-.08-.48-.24-.65-.16-.17-.37-.31-.63-.44-.26-.12-.56-.24-.89-.34-.33-.1-.67-.21-1.02-.32s-.69-.25-1.02-.41-.63-.36-.89-.6-.47-.54-.63-.89-.24-.78-.24-1.28c0-.46.09-.9.27-1.32s.45-.78.81-1.09c.36-.31.8-.56,1.33-.75s1.15-.28,1.84-.28c.78,0,1.49.13,2.12.38.64.26,1.17.59,1.6,1.01l-.62.98Z"/>
      <path class="cls-1" d="M366.07,219.86c-.08.1-.16.18-.24.24-.08.06-.19.09-.34.09-.14,0-.27-.04-.41-.13-.13-.08-.29-.18-.47-.29s-.4-.2-.65-.29c-.25-.08-.57-.13-.94-.13-.48,0-.89.09-1.25.26-.36.17-.66.42-.9.74s-.42.71-.53,1.17c-.12.46-.18.98-.18,1.56s.06,1.14.19,1.61c.13.47.31.86.55,1.18s.54.56.88.73c.35.17.73.25,1.17.25s.78-.05,1.05-.16.49-.22.68-.35c.18-.13.34-.25.48-.35.13-.11.29-.16.46-.16.22,0,.39.08.5.25l.78.99c-.3.35-.63.65-.98.89-.35.24-.72.43-1.09.57s-.77.24-1.17.3c-.4.06-.8.09-1.2.09-.7,0-1.35-.13-1.97-.39-.62-.26-1.15-.64-1.61-1.14-.46-.5-.82-1.11-1.09-1.83s-.4-1.55-.4-2.47c0-.83.12-1.6.36-2.3.24-.71.59-1.32,1.05-1.84.46-.52,1.03-.92,1.72-1.22.68-.29,1.46-.44,2.35-.44s1.58.14,2.22.41c.63.27,1.2.66,1.71,1.17l-.71.99Z"/>
      <path class="cls-1" d="M368.63,228.76v-16.35h2.72v6.28c.44-.42.92-.76,1.45-1.01.53-.26,1.15-.38,1.86-.38.62,0,1.16.1,1.64.31s.87.5,1.19.88c.32.38.56.83.73,1.35s.25,1.1.25,1.73v7.18h-2.72v-7.18c0-.69-.16-1.22-.48-1.6-.32-.38-.8-.57-1.44-.57-.47,0-.91.11-1.32.32-.41.21-.8.5-1.17.87v8.16h-2.72Z"/>
      <path class="cls-1" d="M385.8,217.29c.71,0,1.37.11,1.96.34.6.23,1.11.56,1.55,1,.43.44.77.97,1.01,1.61s.36,1.36.36,2.17c0,.21,0,.38-.03.51-.02.14-.05.24-.1.32-.05.08-.11.13-.19.17-.08.03-.18.05-.31.05h-6.97c.08,1.16.39,2.01.93,2.55.54.54,1.26.81,2.16.81.44,0,.82-.05,1.14-.15.32-.1.6-.22.84-.34.24-.12.45-.24.63-.34s.35-.15.52-.15c.11,0,.21.02.29.07.08.04.15.11.21.19l.79.99c-.3.35-.64.65-1.01.89s-.76.43-1.17.57c-.41.14-.82.24-1.24.3-.42.06-.83.09-1.23.09-.79,0-1.51-.13-2.19-.39s-1.26-.65-1.76-1.15-.89-1.14-1.18-1.89c-.29-.75-.43-1.62-.43-2.61,0-.77.12-1.49.37-2.17.25-.68.61-1.27,1.07-1.77.47-.5,1.03-.9,1.71-1.19s1.43-.44,2.27-.44ZM385.86,219.24c-.79,0-1.41.22-1.86.67-.45.45-.73,1.08-.86,1.9h5.1c0-.35-.05-.68-.14-1-.1-.31-.24-.58-.44-.82-.2-.23-.45-.42-.75-.56s-.65-.2-1.06-.2Z"/>
      <path class="cls-1" d="M407.33,212.85v2.35h-7.05v4.41h5.55v2.28h-5.55v4.5h7.05v2.37h-10.03v-15.91h10.03Z"/>
      <path class="cls-1" d="M409.74,228.76v-11.29h1.66c.35,0,.58.17.69.5l.19.89c.23-.23.47-.45.72-.64.25-.19.52-.36.8-.5.28-.14.58-.25.91-.32.32-.07.67-.11,1.06-.11.62,0,1.16.1,1.64.31s.87.5,1.19.88c.32.38.56.83.73,1.35s.25,1.1.25,1.73v7.18h-2.72v-7.18c0-.69-.16-1.22-.48-1.6-.32-.38-.8-.57-1.44-.57-.47,0-.91.11-1.32.32-.41.21-.8.5-1.17.87v8.16h-2.72Z"/>
      <path class="cls-1" d="M425.95,228.93c-.98,0-1.73-.28-2.25-.83-.53-.55-.79-1.32-.79-2.29v-6.3h-1.14c-.15,0-.27-.05-.38-.14-.11-.1-.16-.24-.16-.43v-1.08l1.82-.3.57-3.08c.03-.15.1-.26.2-.34.11-.08.24-.12.4-.12h1.41v3.55h2.97v1.94h-2.97v6.12c0,.35.09.63.26.82.18.2.41.3.7.3.17,0,.31-.02.42-.06.11-.04.21-.08.3-.13.08-.04.16-.09.23-.13.07-.04.13-.06.2-.06.08,0,.15.02.2.06.05.04.11.1.17.18l.81,1.32c-.4.33-.85.58-1.36.75-.51.17-1.04.25-1.59.25Z"/>
      <path class="cls-1" d="M429.38,217.47h2.16c.21,0,.38.05.52.14s.23.22.26.36l1.62,6.03c.09.33.16.65.21.97.05.32.11.63.16.95.08-.32.17-.63.26-.95.09-.31.19-.64.29-.97l1.87-6.05c.04-.15.13-.27.26-.36.13-.1.29-.14.46-.14h1.2c.2,0,.36.05.5.14s.22.22.26.36l1.85,6.16c.09.32.18.62.26.92.08.3.15.6.23.9.05-.31.11-.63.17-.95s.14-.64.24-.98l1.67-6.03c.04-.15.12-.27.26-.36.14-.1.3-.14.48-.14h2.06l-3.58,11.29h-2.19c-.23,0-.4-.16-.51-.48l-2.04-6.52c-.07-.21-.13-.43-.18-.64-.06-.22-.1-.43-.14-.64-.04.22-.09.44-.14.65-.05.22-.11.43-.18.65l-2.06,6.5c-.1.32-.3.48-.59.48h-2.08l-3.58-11.29Z"/>
      <path class="cls-1" d="M451.46,214.18c0,.23-.05.46-.14.66-.1.21-.22.39-.38.54-.16.15-.34.28-.56.37s-.44.14-.68.14-.46-.05-.67-.14-.39-.21-.54-.37c-.15-.15-.28-.33-.37-.54-.09-.21-.14-.43-.14-.66s.04-.47.14-.68c.09-.21.21-.4.37-.55.15-.15.33-.28.54-.37s.43-.14.67-.14.47.05.68.14.4.21.56.37c.16.15.28.34.38.55.09.21.14.44.14.68ZM451.05,217.47v11.29h-2.72v-11.29h2.72Z"/>
      <path class="cls-1" d="M462.05,219.86c-.08.1-.16.18-.24.24-.08.06-.19.09-.34.09-.14,0-.27-.04-.41-.13-.13-.08-.29-.18-.47-.29-.18-.11-.4-.2-.65-.29-.25-.08-.57-.13-.94-.13-.48,0-.89.09-1.25.26-.36.17-.66.42-.9.74s-.42.71-.53,1.17c-.12.46-.18.98-.18,1.56s.06,1.14.19,1.61c.13.47.31.86.55,1.18.24.32.54.56.88.73s.73.25,1.17.25.78-.05,1.05-.16.49-.22.68-.35c.18-.13.34-.25.48-.35.14-.11.29-.16.46-.16.22,0,.39.08.5.25l.78.99c-.3.35-.63.65-.98.89-.35.24-.72.43-1.09.57-.38.14-.77.24-1.17.3-.4.06-.8.09-1.2.09-.7,0-1.35-.13-1.97-.39s-1.15-.64-1.61-1.14c-.46-.5-.82-1.11-1.09-1.83s-.4-1.55-.4-2.47c0-.83.12-1.6.36-2.3.24-.71.59-1.32,1.05-1.84.46-.52,1.03-.92,1.72-1.22.68-.29,1.47-.44,2.35-.44s1.58.14,2.22.41c.63.27,1.2.66,1.71,1.17l-.71.99Z"/>
      <path class="cls-1" d="M467.36,212.41v9.36h.51c.18,0,.33-.03.43-.08s.21-.15.33-.29l2.81-3.46c.12-.15.26-.26.4-.35.14-.08.32-.13.55-.13h2.49l-3.51,4.19c-.12.15-.25.3-.39.42-.13.13-.27.24-.43.34.15.11.29.24.41.38.12.15.23.3.35.47l3.76,5.48h-2.45c-.21,0-.39-.04-.54-.11s-.28-.2-.4-.37l-2.87-4.28c-.11-.17-.22-.28-.33-.33-.11-.05-.28-.08-.5-.08h-.62v5.17h-2.72v-16.35h2.72Z"/>
      <path class="cls-1" d="M479.64,212.41v16.35h-2.72v-16.35h2.72Z"/>
      <path class="cls-1" d="M485.2,217.47v7.17c0,.69.16,1.22.48,1.6.32.38.8.57,1.44.57.47,0,.91-.1,1.32-.31.41-.21.8-.5,1.17-.86v-8.16h2.72v11.29h-1.66c-.35,0-.58-.17-.69-.5l-.19-.9c-.23.23-.48.45-.73.64s-.52.36-.8.5-.59.24-.91.32-.68.12-1.05.12c-.62,0-1.16-.1-1.63-.31s-.87-.5-1.19-.89c-.32-.38-.57-.83-.73-1.36s-.25-1.1-.25-1.73v-7.17h2.72Z"/>
      <path class="cls-1" d="M495.22,228.76v-11.29h1.66c.35,0,.58.17.69.5l.19.89c.23-.23.47-.45.72-.64.25-.19.52-.36.8-.5.28-.14.58-.25.91-.32.32-.07.67-.11,1.06-.11.62,0,1.16.1,1.64.31s.87.5,1.19.88c.32.38.56.83.73,1.35s.25,1.1.25,1.73v7.18h-2.72v-7.18c0-.69-.16-1.22-.48-1.6-.32-.38-.8-.57-1.44-.57-.47,0-.91.11-1.32.32-.41.21-.8.5-1.17.87v8.16h-2.72Z"/>
      <path class="cls-1" d="M511.63,217.27c.48,0,.94.05,1.36.15.43.1.81.24,1.17.43h3.25v1.01c0,.17-.04.3-.13.4-.09.1-.24.16-.45.2l-1.01.19c.07.19.13.39.17.6.04.21.06.44.06.67,0,.56-.11,1.06-.33,1.51-.22.45-.53.83-.92,1.15-.39.32-.86.56-1.4.73s-1.12.26-1.75.26c-.43,0-.84-.04-1.24-.12-.35.21-.53.45-.53.72,0,.23.1.4.31.5s.48.18.83.23.73.07,1.16.07.88.02,1.33.06c.46.04.9.1,1.33.19s.82.24,1.16.44c.34.2.62.47.83.81.21.34.31.78.31,1.32,0,.5-.12.99-.37,1.46-.25.47-.6.89-1.07,1.26-.47.37-1.04.66-1.71.89s-1.45.34-2.31.34-1.6-.08-2.23-.25-1.15-.39-1.57-.66c-.42-.27-.72-.59-.93-.95s-.31-.73-.31-1.12c0-.53.16-.97.48-1.33.32-.36.77-.65,1.34-.86-.28-.15-.5-.36-.67-.62s-.25-.59-.25-1c0-.17.03-.34.09-.52s.15-.36.27-.53c.12-.18.27-.34.46-.5.18-.16.4-.3.65-.42-.57-.31-1.02-.72-1.35-1.23s-.49-1.11-.49-1.8c0-.56.11-1.06.34-1.51.22-.45.54-.84.93-1.15s.87-.56,1.42-.73c.55-.17,1.14-.25,1.79-.25ZM514.61,229.23c0-.22-.07-.41-.2-.55-.13-.14-.31-.25-.54-.33-.23-.08-.49-.14-.8-.17-.3-.04-.63-.06-.97-.06h-1.06c-.36,0-.71-.04-1.05-.12-.31.17-.55.37-.74.6-.19.23-.28.5-.28.8,0,.2.05.38.15.56s.26.32.47.45c.22.12.5.22.84.29.34.07.77.1,1.26.1s.94-.04,1.31-.12c.37-.08.67-.19.91-.33s.41-.3.52-.49c.11-.19.17-.4.17-.62ZM511.63,222.84c.34,0,.63-.05.88-.14.25-.09.46-.22.62-.38.17-.16.29-.36.37-.58.08-.23.13-.48.13-.75,0-.56-.17-1-.5-1.33s-.83-.49-1.5-.49-1.17.16-1.5.49-.5.77-.5,1.33c0,.26.04.51.13.74.08.23.21.42.37.59s.37.29.63.38c.25.09.54.14.88.14Z"/>
      <path class="cls-1" d="M525.84,217.47v7.17c0,.69.16,1.22.48,1.6.32.38.8.57,1.44.57.47,0,.91-.1,1.32-.31.41-.21.8-.5,1.17-.86v-8.16h2.72v11.29h-1.66c-.35,0-.58-.17-.69-.5l-.19-.9c-.23.23-.48.45-.73.64s-.52.36-.8.5-.59.24-.91.32-.68.12-1.05.12c-.62,0-1.16-.1-1.63-.31s-.87-.5-1.19-.89c-.32-.38-.57-.83-.73-1.36s-.25-1.1-.25-1.73v-7.17h2.72Z"/>
      <path class="cls-1" d="M535.86,228.76v-11.29h1.66c.35,0,.58.17.69.5l.19.89c.23-.23.47-.45.72-.64.25-.19.52-.36.8-.5.28-.14.58-.25.91-.32.32-.07.67-.11,1.06-.11.62,0,1.16.1,1.64.31s.87.5,1.19.88c.32.38.56.83.73,1.35s.25,1.1.25,1.73v7.18h-2.72v-7.18c0-.69-.16-1.22-.48-1.6-.32-.38-.8-.57-1.44-.57-.47,0-.91.11-1.32.32-.41.21-.8.5-1.17.87v8.16h-2.72Z"/>
      <path class="cls-1" d="M556.31,228.76c-.35,0-.58-.17-.69-.5l-.22-1.09c-.24.26-.48.5-.74.71-.26.21-.53.4-.83.55-.3.15-.62.27-.96.36-.34.08-.71.13-1.11.13-.62,0-1.18-.13-1.69-.39-.51-.26-.96-.63-1.33-1.12-.37-.49-.66-1.09-.86-1.81-.2-.72-.3-1.54-.3-2.46,0-.84.11-1.61.34-2.33s.55-1.34.98-1.87c.42-.53.93-.94,1.53-1.24s1.26-.45,2-.45c.63,0,1.17.1,1.62.3s.85.47,1.2.81v-5.96h2.72v16.35h-1.66ZM552.69,226.76c.56,0,1.04-.12,1.44-.35.4-.23.77-.57,1.12-1v-5.06c-.31-.37-.64-.64-1.01-.79-.36-.15-.75-.23-1.17-.23s-.78.08-1.12.23c-.33.15-.62.39-.85.7-.23.31-.41.71-.53,1.19-.12.48-.19,1.05-.19,1.7s.05,1.22.16,1.68c.11.46.26.83.46,1.12.2.29.44.5.73.63.29.13.6.19.96.19Z"/>
      <path class="cls-1" d="M568.37,223.16v5.6h-2.96v-15.91h5.18c1.06,0,1.98.12,2.76.37.78.25,1.42.6,1.92,1.05s.88.98,1.12,1.61c.24.62.36,1.31.36,2.05s-.13,1.48-.38,2.12-.64,1.19-1.16,1.66c-.51.46-1.15.82-1.92,1.08-.77.26-1.67.38-2.71.38h-2.22ZM568.37,220.85h2.22c.54,0,1.02-.07,1.42-.2s.74-.33,1-.58c.26-.25.46-.56.59-.92.13-.36.2-.77.2-1.22s-.07-.81-.2-1.16c-.13-.34-.33-.64-.59-.88-.26-.24-.6-.43-1-.56s-.88-.19-1.42-.19h-2.22v5.71Z"/>
      <path class="cls-1" d="M581.8,212.41v16.35h-2.72v-16.35h2.72Z"/>
      <path class="cls-1" d="M593.71,228.76h-1.22c-.26,0-.46-.04-.61-.12-.15-.08-.26-.23-.33-.47l-.24-.8c-.29.26-.57.48-.84.68-.28.19-.56.36-.85.49-.29.13-.61.23-.94.3-.33.07-.7.1-1.1.1-.48,0-.92-.06-1.32-.19s-.75-.32-1.04-.58c-.29-.26-.52-.58-.68-.96-.16-.38-.24-.83-.24-1.34,0-.43.11-.85.34-1.26s.6-.79,1.12-1.13c.52-.33,1.21-.61,2.08-.83s1.94-.33,3.22-.33v-.67c0-.76-.16-1.32-.48-1.69-.32-.37-.78-.55-1.39-.55-.44,0-.81.05-1.1.15-.29.1-.55.22-.76.35-.22.13-.42.24-.6.35-.18.1-.38.15-.6.15-.18,0-.34-.05-.47-.14-.13-.1-.24-.21-.32-.35l-.5-.87c1.3-1.19,2.86-1.78,4.7-1.78.66,0,1.25.11,1.77.32.52.22.96.52,1.31.9.36.39.63.85.82,1.38.19.54.28,1.12.28,1.76v7.13ZM588.43,227.06c.28,0,.54-.03.77-.08.23-.05.46-.13.67-.23s.41-.23.61-.37.39-.32.59-.53v-1.89c-.79,0-1.45.05-1.99.15-.53.1-.96.23-1.28.38-.32.16-.55.34-.69.54-.14.21-.2.43-.2.68,0,.48.14.82.42,1.03.28.21.65.31,1.11.31Z"/>
      <path class="cls-1" d="M596.38,228.76v-11.29h1.66c.35,0,.58.17.69.5l.19.89c.23-.23.47-.45.72-.64.25-.19.52-.36.8-.5.28-.14.58-.25.91-.32.32-.07.67-.11,1.06-.11.62,0,1.16.1,1.64.31s.87.5,1.19.88c.32.38.56.83.73,1.35s.25,1.1.25,1.73v7.18h-2.72v-7.18c0-.69-.16-1.22-.48-1.6-.32-.38-.8-.57-1.44-.57-.47,0-.91.11-1.32.32-.41.21-.8.5-1.17.87v8.16h-2.72Z"/>
      <path class="cls-1" d="M611.38,217.47v7.17c0,.69.16,1.22.48,1.6.32.38.8.57,1.44.57.47,0,.91-.1,1.32-.31.41-.21.8-.5,1.17-.86v-8.16h2.72v11.29h-1.66c-.35,0-.58-.17-.69-.5l-.19-.9c-.23.23-.48.45-.73.64s-.52.36-.8.5-.59.24-.91.32-.68.12-1.05.12c-.62,0-1.16-.1-1.63-.31s-.87-.5-1.19-.89c-.32-.38-.57-.83-.73-1.36s-.25-1.1-.25-1.73v-7.17h2.72Z"/>
      <path class="cls-1" d="M621.4,228.76v-11.29h1.66c.35,0,.58.17.69.5l.19.89c.23-.23.47-.45.72-.64.25-.19.52-.36.8-.5.28-.14.58-.25.91-.32.32-.07.67-.11,1.06-.11.62,0,1.16.1,1.64.31s.87.5,1.19.88c.32.38.56.83.73,1.35s.25,1.1.25,1.73v7.18h-2.72v-7.18c0-.69-.16-1.22-.48-1.6-.32-.38-.8-.57-1.44-.57-.47,0-.91.11-1.32.32-.41.21-.8.5-1.17.87v8.16h-2.72Z"/>
      <path class="cls-1" d="M637.81,217.27c.48,0,.94.05,1.36.15.43.1.81.24,1.17.43h3.25v1.01c0,.17-.04.3-.13.4-.09.1-.24.16-.45.2l-1.01.19c.07.19.13.39.17.6.04.21.06.44.06.67,0,.56-.11,1.06-.33,1.51-.22.45-.53.83-.92,1.15-.39.32-.86.56-1.4.73s-1.12.26-1.75.26c-.43,0-.84-.04-1.24-.12-.35.21-.53.45-.53.72,0,.23.1.4.31.5s.48.18.83.23.73.07,1.16.07.88.02,1.33.06c.46.04.9.1,1.33.19s.82.24,1.16.44c.34.2.62.47.83.81.21.34.31.78.31,1.32,0,.5-.12.99-.37,1.46-.25.47-.6.89-1.07,1.26-.47.37-1.04.66-1.71.89s-1.45.34-2.31.34-1.6-.08-2.23-.25-1.15-.39-1.57-.66c-.42-.27-.72-.59-.93-.95s-.31-.73-.31-1.12c0-.53.16-.97.48-1.33.32-.36.77-.65,1.34-.86-.28-.15-.5-.36-.67-.62s-.25-.59-.25-1c0-.17.03-.34.09-.52s.15-.36.27-.53c.12-.18.27-.34.46-.5.18-.16.4-.3.65-.42-.57-.31-1.02-.72-1.35-1.23s-.49-1.11-.49-1.8c0-.56.11-1.06.34-1.51.22-.45.54-.84.93-1.15s.87-.56,1.42-.73c.55-.17,1.14-.25,1.79-.25ZM640.79,229.23c0-.22-.07-.41-.2-.55-.13-.14-.31-.25-.54-.33-.23-.08-.49-.14-.8-.17-.3-.04-.63-.06-.97-.06h-1.06c-.36,0-.71-.04-1.05-.12-.31.17-.55.37-.74.6-.19.23-.28.5-.28.8,0,.2.05.38.15.56s.26.32.47.45c.22.12.5.22.84.29.34.07.77.1,1.26.1s.94-.04,1.31-.12c.37-.08.67-.19.91-.33s.41-.3.52-.49c.11-.19.17-.4.17-.62ZM637.81,222.84c.34,0,.63-.05.88-.14.25-.09.46-.22.62-.38.17-.16.29-.36.37-.58.08-.23.13-.48.13-.75,0-.56-.17-1-.5-1.33s-.83-.49-1.5-.49-1.17.16-1.5.49-.5.77-.5,1.33c0,.26.04.51.13.74.08.23.21.42.37.59s.37.29.63.38c.25.09.54.14.88.14Z"/>
      <path class="cls-1" d="M658.38,228.76h-1.22c-.26,0-.46-.04-.61-.12-.15-.08-.26-.23-.33-.47l-.24-.8c-.29.26-.57.48-.84.68-.28.19-.56.36-.85.49-.29.13-.61.23-.94.3-.33.07-.7.1-1.1.1-.48,0-.92-.06-1.32-.19s-.75-.32-1.04-.58c-.29-.26-.52-.58-.68-.96-.16-.38-.24-.83-.24-1.34,0-.43.11-.85.34-1.26s.6-.79,1.12-1.13c.52-.33,1.21-.61,2.08-.83s1.94-.33,3.22-.33v-.67c0-.76-.16-1.32-.48-1.69-.32-.37-.78-.55-1.39-.55-.44,0-.81.05-1.1.15-.29.1-.55.22-.76.35-.22.13-.42.24-.6.35-.18.1-.38.15-.6.15-.18,0-.34-.05-.47-.14-.13-.1-.24-.21-.32-.35l-.5-.87c1.3-1.19,2.86-1.78,4.7-1.78.66,0,1.25.11,1.77.32.52.22.96.52,1.31.9.36.39.63.85.82,1.38.19.54.28,1.12.28,1.76v7.13ZM653.1,227.06c.28,0,.54-.03.77-.08.23-.05.46-.13.67-.23s.41-.23.61-.37.39-.32.59-.53v-1.89c-.79,0-1.45.05-1.99.15-.53.1-.96.23-1.28.38-.32.16-.55.34-.69.54-.14.21-.2.43-.2.68,0,.48.14.82.42,1.03.28.21.65.31,1.11.31Z"/>
      <path class="cls-1" d="M663.54,217.47v7.17c0,.69.16,1.22.48,1.6.32.38.8.57,1.44.57.47,0,.91-.1,1.32-.31.41-.21.8-.5,1.17-.86v-8.16h2.72v11.29h-1.66c-.35,0-.58-.17-.69-.5l-.19-.9c-.23.23-.48.45-.73.64s-.52.36-.8.5-.59.24-.91.32-.68.12-1.05.12c-.62,0-1.16-.1-1.63-.31s-.87-.5-1.19-.89c-.32-.38-.57-.83-.73-1.36s-.25-1.1-.25-1.73v-7.17h2.72Z"/>
      <path class="cls-1" d="M674.04,228.76v-9.24l-.98-.15c-.21-.04-.38-.11-.51-.22-.13-.11-.19-.26-.19-.46v-1.11h1.68v-.84c0-.65.1-1.22.29-1.74.19-.51.47-.95.84-1.31s.8-.63,1.33-.83c.52-.19,1.11-.29,1.76-.29.52,0,1,.07,1.45.21l-.05,1.36c-.01.21-.11.34-.3.4s-.4.08-.64.08c-.32,0-.61.03-.86.1-.25.07-.47.19-.64.36-.18.17-.31.4-.4.68s-.14.63-.14,1.05v.75h2.94v1.94h-2.85v9.25h-2.72Z"/>
      <path class="cls-1" d="M685.67,228.76v-15.91h5.49c1.04,0,1.93.1,2.67.3.74.2,1.34.48,1.81.85.47.37.82.81,1.04,1.33.22.52.33,1.11.33,1.76,0,.37-.06.73-.17,1.07-.11.34-.28.66-.51.96s-.52.57-.88.81-.78.45-1.27.62c2.19.49,3.28,1.67,3.28,3.54,0,.67-.13,1.3-.39,1.87-.26.57-.63,1.07-1.12,1.48-.49.41-1.1.74-1.81.97-.72.23-1.54.35-2.46.35h-6.01ZM688.63,219.74h2.36c1,0,1.77-.18,2.29-.55s.78-.95.78-1.75-.23-1.42-.7-1.77-1.2-.53-2.2-.53h-2.53v4.6ZM688.63,221.78v4.66h3c.55,0,1.01-.07,1.38-.2.37-.13.67-.31.89-.53.22-.22.38-.48.48-.77.1-.29.15-.6.15-.94s-.05-.65-.17-.93c-.11-.27-.28-.51-.52-.7s-.54-.34-.9-.45c-.37-.1-.81-.15-1.33-.15h-2.99Z"/>
      <path class="cls-1" d="M708.69,228.76h-1.22c-.26,0-.46-.04-.61-.12-.15-.08-.26-.23-.33-.47l-.24-.8c-.29.26-.57.48-.84.68-.28.19-.56.36-.85.49-.29.13-.61.23-.94.3-.33.07-.7.1-1.1.1-.48,0-.92-.06-1.32-.19s-.75-.32-1.04-.58c-.29-.26-.52-.58-.68-.96-.16-.38-.24-.83-.24-1.34,0-.43.11-.85.34-1.26s.6-.79,1.12-1.13c.52-.33,1.21-.61,2.08-.83s1.94-.33,3.22-.33v-.67c0-.76-.16-1.32-.48-1.69-.32-.37-.78-.55-1.39-.55-.44,0-.81.05-1.1.15-.29.1-.55.22-.76.35-.22.13-.42.24-.6.35-.18.1-.38.15-.6.15-.18,0-.34-.05-.47-.14-.13-.1-.24-.21-.32-.35l-.5-.87c1.3-1.19,2.86-1.78,4.7-1.78.66,0,1.25.11,1.77.32.52.22.96.52,1.31.9.36.39.63.85.82,1.38.19.54.28,1.12.28,1.76v7.13ZM703.41,227.06c.28,0,.54-.03.77-.08.23-.05.46-.13.67-.23s.41-.23.61-.37.39-.32.59-.53v-1.89c-.79,0-1.45.05-1.99.15-.53.1-.96.23-1.28.38-.32.16-.55.34-.69.54-.14.21-.2.43-.2.68,0,.48.14.82.42,1.03.28.21.65.31,1.11.31Z"/>
      <path class="cls-1" d="M718.06,219.67c-.07.12-.15.2-.23.25s-.18.07-.31.07c-.13,0-.27-.04-.42-.11s-.32-.16-.52-.25-.42-.17-.68-.25-.55-.11-.9-.11c-.54,0-.96.11-1.26.34-.31.23-.46.52-.46.89,0,.24.08.45.24.61.16.17.37.31.63.43.26.12.56.24.89.34.33.1.67.21,1.01.32s.68.25,1.01.4.62.34.89.57c.26.23.47.51.63.83.16.32.24.71.24,1.17,0,.54-.1,1.04-.3,1.5-.2.46-.49.85-.87,1.19-.38.33-.85.59-1.41.78-.56.19-1.21.28-1.93.28-.39,0-.77-.03-1.14-.1-.37-.07-.73-.17-1.07-.29-.34-.12-.66-.27-.95-.44-.29-.17-.54-.35-.76-.55l.63-1.03c.08-.12.18-.22.29-.29.11-.07.25-.1.42-.1s.33.05.48.14.32.2.52.31c.2.11.43.21.7.31.27.1.61.14,1.02.14.32,0,.6-.04.83-.12.23-.08.42-.18.57-.3.15-.12.26-.27.33-.43.07-.17.1-.34.1-.51,0-.26-.08-.48-.24-.65-.16-.17-.37-.31-.63-.44-.26-.12-.56-.24-.89-.34-.33-.1-.67-.21-1.02-.32s-.69-.25-1.02-.41c-.33-.16-.63-.36-.89-.6-.26-.24-.47-.54-.63-.89-.16-.35-.24-.78-.24-1.28,0-.46.09-.9.28-1.32.18-.42.45-.78.81-1.09.36-.31.8-.56,1.33-.75.53-.19,1.15-.28,1.84-.28.78,0,1.49.13,2.12.38.64.26,1.17.59,1.59,1.01l-.62.98Z"/>
      <path class="cls-1" d="M724.28,214.18c0,.23-.05.46-.14.66-.1.21-.22.39-.38.54-.16.15-.34.28-.56.37s-.44.14-.68.14-.46-.05-.67-.14-.39-.21-.54-.37c-.15-.15-.28-.33-.37-.54-.09-.21-.14-.43-.14-.66s.04-.47.14-.68c.09-.21.21-.4.37-.55.15-.15.33-.28.54-.37s.43-.14.67-.14.47.05.68.14.4.21.56.37c.16.15.28.34.38.55.09.21.14.44.14.68ZM723.87,217.47v11.29h-2.72v-11.29h2.72Z"/>
      <path class="cls-1" d="M733.64,219.67c-.07.12-.15.2-.23.25s-.18.07-.31.07c-.13,0-.27-.04-.42-.11s-.32-.16-.52-.25-.42-.17-.68-.25-.55-.11-.9-.11c-.54,0-.96.11-1.26.34-.31.23-.46.52-.46.89,0,.24.08.45.24.61.16.17.37.31.63.43.26.12.56.24.89.34.33.1.67.21,1.01.32s.68.25,1.01.4.62.34.89.57c.26.23.47.51.63.83.16.32.24.71.24,1.17,0,.54-.1,1.04-.3,1.5-.2.46-.49.85-.87,1.19-.38.33-.85.59-1.41.78-.56.19-1.21.28-1.93.28-.39,0-.77-.03-1.14-.1-.37-.07-.73-.17-1.07-.29-.34-.12-.66-.27-.95-.44-.29-.17-.54-.35-.76-.55l.63-1.03c.08-.12.18-.22.29-.29.11-.07.25-.1.42-.1s.33.05.48.14.32.2.52.31c.2.11.43.21.7.31.27.1.61.14,1.02.14.32,0,.6-.04.83-.12.23-.08.42-.18.57-.3.15-.12.26-.27.33-.43.07-.17.1-.34.1-.51,0-.26-.08-.48-.24-.65-.16-.17-.37-.31-.63-.44-.26-.12-.56-.24-.89-.34-.33-.1-.67-.21-1.02-.32s-.69-.25-1.02-.41c-.33-.16-.63-.36-.89-.6-.26-.24-.47-.54-.63-.89-.16-.35-.24-.78-.24-1.28,0-.46.09-.9.28-1.32.18-.42.45-.78.81-1.09.36-.31.8-.56,1.33-.75.53-.19,1.15-.28,1.84-.28.78,0,1.49.13,2.12.38.64.26,1.17.59,1.59,1.01l-.62.98Z"/>
      <path class="cls-1" d="M746.45,228.76h-2.46l-4.49-11.29h2.25c.2,0,.36.05.5.14s.23.22.28.36l2.18,6.03c.12.35.23.7.31,1.03.08.34.16.67.23,1.01.07-.34.14-.67.23-1.01.08-.34.19-.68.32-1.03l2.23-6.03c.05-.15.14-.27.27-.36s.29-.14.47-.14h2.14l-4.48,11.29Z"/>
      <path class="cls-1" d="M756.99,217.29c.84,0,1.61.14,2.29.41.69.27,1.27.66,1.75,1.16.48.5.86,1.11,1.12,1.83.26.72.4,1.52.4,2.41s-.13,1.7-.4,2.42c-.26.72-.64,1.33-1.12,1.84-.48.51-1.07.9-1.75,1.17-.69.27-1.45.41-2.29.41s-1.61-.14-2.3-.41c-.69-.27-1.28-.66-1.77-1.17-.49-.51-.87-1.12-1.13-1.84-.27-.72-.4-1.52-.4-2.42s.13-1.69.4-2.41c.27-.72.65-1.33,1.13-1.83.49-.5,1.08-.88,1.77-1.16.69-.27,1.46-.41,2.3-.41ZM756.99,226.83c.94,0,1.63-.32,2.08-.95.45-.63.68-1.55.68-2.77s-.23-2.15-.68-2.78c-.45-.64-1.15-.96-2.08-.96s-1.66.32-2.11.96c-.46.64-.68,1.57-.68,2.78s.23,2.13.68,2.77c.45.63,1.16.95,2.11.95Z"/>
      <path class="cls-1" d="M764.68,228.76v-11.29h1.66c.35,0,.58.17.69.5l.19.89c.23-.23.47-.45.72-.64.25-.19.52-.36.8-.5.28-.14.58-.25.91-.32.32-.07.67-.11,1.06-.11.62,0,1.16.1,1.64.31s.87.5,1.19.88c.32.38.56.83.73,1.35s.25,1.1.25,1.73v7.18h-2.72v-7.18c0-.69-.16-1.22-.48-1.6-.32-.38-.8-.57-1.44-.57-.47,0-.91.11-1.32.32-.41.21-.8.5-1.17.87v8.16h-2.72Z"/>
      <path class="cls-1" d="M292.61,244.99c0,.19-.03.38-.1.56-.07.18-.15.33-.25.46l-5.37,7.06h5.57v2.09h-8.72v-1.13c0-.12.03-.27.09-.45.06-.17.15-.34.27-.49l5.41-7.14h-5.46v-2.08h8.56v1.12Z"/>
      <path class="cls-1" d="M299.44,243.69c.71,0,1.37.11,1.96.34.6.23,1.11.56,1.55,1,.43.44.77.97,1.01,1.61.24.63.36,1.36.36,2.17,0,.21,0,.38-.03.51-.02.14-.05.24-.1.32-.05.08-.11.13-.19.17-.08.03-.18.05-.31.05h-6.97c.08,1.16.39,2.01.94,2.55.54.54,1.26.81,2.16.81.44,0,.82-.05,1.14-.15s.6-.22.84-.34c.24-.12.45-.24.63-.34s.35-.15.52-.15c.11,0,.21.02.29.07s.15.11.21.19l.79.99c-.3.35-.64.65-1.01.89s-.76.43-1.17.57c-.41.14-.82.24-1.24.3-.42.06-.83.09-1.23.09-.78,0-1.51-.13-2.19-.39-.67-.26-1.26-.65-1.76-1.15-.5-.51-.89-1.14-1.18-1.89-.29-.75-.43-1.62-.43-2.61,0-.77.12-1.49.37-2.17.25-.68.61-1.27,1.07-1.77.47-.5,1.03-.9,1.71-1.19.67-.29,1.43-.44,2.27-.44ZM299.5,245.64c-.79,0-1.41.22-1.86.67-.45.45-.73,1.08-.86,1.9h5.1c0-.35-.05-.68-.14-1-.1-.31-.24-.58-.44-.82-.2-.23-.45-.42-.75-.56s-.65-.2-1.06-.2Z"/>
      <path class="cls-1" d="M309.84,240.58c0,.23-.05.46-.14.66-.1.21-.22.39-.38.54s-.34.28-.56.37c-.21.09-.44.14-.68.14s-.46-.05-.67-.14-.39-.21-.54-.37c-.15-.15-.28-.33-.37-.54-.09-.21-.14-.43-.14-.66s.05-.47.14-.68c.09-.21.21-.4.37-.55s.34-.28.54-.37.43-.14.67-.14.47.05.68.14c.21.09.4.21.56.37.16.15.28.34.38.55.1.21.14.44.14.68ZM309.43,243.87v11.29h-2.72v-11.29h2.72Z"/>
      <path class="cls-1" d="M316.2,255.33c-.98,0-1.73-.28-2.26-.83-.53-.55-.79-1.32-.79-2.29v-6.3h-1.14c-.15,0-.27-.05-.38-.14s-.16-.24-.16-.43v-1.08l1.81-.3.57-3.08c.03-.15.1-.26.2-.34.11-.08.24-.12.4-.12h1.41v3.55h2.97v1.94h-2.97v6.12c0,.35.09.63.26.82.18.2.41.3.7.3.17,0,.31-.02.42-.06.11-.04.21-.08.3-.13.08-.04.16-.09.23-.13.07-.04.13-.06.2-.06.08,0,.15.02.2.06.05.04.11.1.17.18l.81,1.32c-.4.33-.85.58-1.36.75-.51.17-1.04.25-1.59.25Z"/>
      <path class="cls-1" d="M323.9,238.81v16.35h-2.72v-16.35h2.72Z"/>
      <path class="cls-1" d="M330.27,240.58c0,.23-.05.46-.14.66-.1.21-.22.39-.38.54s-.34.28-.56.37c-.21.09-.44.14-.68.14s-.46-.05-.67-.14-.39-.21-.54-.37c-.15-.15-.28-.33-.37-.54-.09-.21-.14-.43-.14-.66s.05-.47.14-.68c.09-.21.21-.4.37-.55s.34-.28.54-.37.43-.14.67-.14.47.05.68.14c.21.09.4.21.56.37.16.15.28.34.38.55.1.21.14.44.14.68ZM329.87,243.87v11.29h-2.72v-11.29h2.72Z"/>
      <path class="cls-1" d="M340.87,246.26c-.08.1-.16.18-.24.24-.08.06-.19.09-.34.09s-.27-.04-.41-.13c-.13-.08-.29-.18-.47-.29-.18-.11-.4-.2-.65-.29-.25-.08-.57-.13-.94-.13-.48,0-.89.09-1.25.26-.36.17-.66.42-.9.74s-.42.71-.53,1.17c-.12.46-.18.98-.18,1.56s.06,1.14.19,1.61.31.86.56,1.18c.24.32.54.56.88.73s.73.25,1.17.25.78-.05,1.05-.16.49-.22.68-.35c.18-.13.34-.25.48-.35.14-.11.29-.16.46-.16.22,0,.38.08.49.25l.78.99c-.3.35-.63.65-.98.89s-.72.43-1.09.57c-.38.14-.77.24-1.17.3-.4.06-.8.09-1.2.09-.7,0-1.35-.13-1.97-.39-.62-.26-1.15-.64-1.61-1.14-.46-.5-.82-1.11-1.09-1.83-.27-.72-.4-1.55-.4-2.47,0-.83.12-1.6.36-2.3.24-.71.59-1.32,1.05-1.84s1.03-.92,1.72-1.22,1.47-.44,2.35-.44,1.58.14,2.22.41c.63.27,1.2.66,1.71,1.17l-.72.99Z"/>
      <path class="cls-1" d="M343.43,255.16v-16.35h2.72v6.28c.44-.42.92-.76,1.45-1.01.53-.26,1.15-.38,1.86-.38.62,0,1.16.1,1.64.31.48.21.87.5,1.19.88.32.38.56.83.73,1.35s.25,1.1.25,1.73v7.18h-2.72v-7.18c0-.69-.16-1.22-.48-1.6-.32-.38-.8-.57-1.44-.57-.47,0-.91.11-1.32.32-.41.21-.8.5-1.17.87v8.16h-2.72Z"/>
      <path class="cls-1" d="M366.02,239.07c.65,0,1.22.1,1.73.3.51.2.95.46,1.31.79.36.33.65.71.86,1.13s.33.87.37,1.32l-1.73.36s-.05.01-.07.01h-.07c-.12,0-.24-.03-.34-.1s-.18-.18-.24-.32c-.07-.19-.15-.37-.25-.54-.1-.17-.23-.32-.37-.45s-.32-.23-.52-.31c-.2-.08-.42-.12-.68-.12-.31,0-.58.05-.83.16s-.45.25-.62.43c-.17.18-.3.39-.38.63s-.13.49-.13.75c0,.22.02.43.07.64.05.21.12.41.23.62.1.21.24.42.4.63.17.22.37.45.61.7l4.22,4.39c.24-.46.44-.95.58-1.46.15-.51.24-1.03.29-1.56.01-.17.07-.3.17-.41.09-.1.23-.15.4-.15h1.71c0,.97-.15,1.89-.42,2.77-.27.88-.66,1.69-1.17,2.43l3.33,3.45h-2.66c-.14,0-.26,0-.37-.02s-.21-.04-.3-.08c-.1-.04-.19-.09-.28-.16-.09-.07-.18-.15-.27-.25l-1.1-1.13c-.7.57-1.49,1.02-2.35,1.34-.86.32-1.79.48-2.8.48-.62,0-1.22-.1-1.8-.31-.59-.21-1.11-.51-1.57-.91s-.83-.87-1.12-1.44c-.28-.56-.42-1.19-.42-1.9,0-.49.08-.96.24-1.4.16-.44.38-.86.67-1.24s.62-.73,1.02-1.03c.39-.31.82-.57,1.29-.79-.39-.55-.67-1.09-.85-1.61-.18-.52-.27-1.05-.27-1.57,0-.55.1-1.07.3-1.57.2-.5.5-.93.88-1.29s.86-.66,1.41-.87c.56-.22,1.19-.32,1.89-.32ZM362.19,250.56c0,.4.07.77.21,1.09s.33.6.57.82.52.4.84.52c.32.12.66.18,1.02.18.64,0,1.23-.1,1.76-.3.53-.2,1.02-.48,1.46-.84l-4.18-4.29c-.59.38-1.01.81-1.28,1.29-.27.48-.4.99-.4,1.54Z"/>
      <path class="cls-1" d="M384.95,243.69c.84,0,1.61.14,2.29.41.69.27,1.27.66,1.75,1.16.48.5.86,1.11,1.12,1.83.26.72.4,1.52.4,2.41s-.13,1.7-.4,2.42c-.26.72-.64,1.33-1.12,1.84-.48.51-1.07.9-1.75,1.17-.69.27-1.45.41-2.29.41s-1.61-.14-2.3-.41c-.69-.27-1.28-.66-1.77-1.17-.49-.51-.87-1.12-1.13-1.84-.27-.72-.4-1.52-.4-2.42s.13-1.69.4-2.41c.27-.72.65-1.33,1.13-1.83.49-.5,1.08-.88,1.77-1.16.69-.27,1.46-.41,2.3-.41ZM384.43,240.94c0,.21-.04.4-.12.58-.08.18-.19.34-.34.47-.14.13-.31.24-.5.31-.19.08-.38.12-.59.12s-.39-.04-.57-.12-.34-.18-.48-.31c-.14-.13-.25-.29-.33-.47-.08-.18-.12-.37-.12-.58s.04-.41.12-.6c.08-.19.19-.35.33-.49.14-.14.3-.25.48-.33s.37-.12.57-.12.4.04.59.12c.19.08.35.19.5.33.14.14.25.3.34.49.08.19.12.39.12.6ZM384.95,253.23c.94,0,1.63-.32,2.08-.95.45-.63.68-1.55.68-2.77s-.23-2.15-.68-2.78c-.45-.64-1.15-.96-2.08-.96s-1.66.32-2.11.96c-.46.64-.68,1.57-.68,2.78s.23,2.13.68,2.77c.45.63,1.16.95,2.11.95ZM388.54,240.94c0,.21-.04.4-.12.58-.08.18-.19.34-.33.47-.14.13-.3.24-.49.31-.19.08-.38.12-.59.12s-.4-.04-.58-.12c-.18-.08-.34-.18-.48-.31s-.24-.29-.32-.47c-.08-.18-.12-.37-.12-.58s.04-.41.12-.6c.08-.19.19-.35.32-.49.14-.14.29-.25.48-.33.18-.08.38-.12.58-.12s.4.04.59.12c.19.08.35.19.49.33.14.14.25.3.33.49.08.19.12.39.12.6Z"/>
      <path class="cls-1" d="M392.64,255.16v-11.29h1.59c.28,0,.47.05.58.15s.18.28.22.53l.17,1.36c.4-.7.88-1.25,1.42-1.65.54-.4,1.15-.6,1.83-.6.56,0,1.02.13,1.39.39l-.35,2.03c-.02.13-.07.23-.14.28-.07.06-.17.08-.3.08-.11,0-.26-.03-.45-.08-.19-.05-.44-.08-.76-.08-.56,0-1.05.16-1.45.47s-.75.77-1.02,1.37v7.03h-2.72Z"/>
      <path class="cls-1" d="M405.34,255.33c-.98,0-1.73-.28-2.25-.83-.53-.55-.79-1.32-.79-2.29v-6.3h-1.14c-.15,0-.27-.05-.38-.14-.11-.1-.16-.24-.16-.43v-1.08l1.82-.3.57-3.08c.03-.15.1-.26.2-.34.11-.08.24-.12.4-.12h1.41v3.55h2.97v1.94h-2.97v6.12c0,.35.09.63.26.82.18.2.41.3.7.3.17,0,.31-.02.42-.06.11-.04.21-.08.3-.13.08-.04.16-.09.23-.13.07-.04.13-.06.2-.06.08,0,.15.02.2.06.05.04.11.1.17.18l.81,1.32c-.4.33-.85.58-1.36.75-.51.17-1.04.25-1.59.25Z"/>
      <path class="cls-1" d="M413.04,238.81v16.35h-2.72v-16.35h2.72Z"/>
      <path class="cls-1" d="M419.41,240.58c0,.23-.05.46-.14.66-.1.21-.22.39-.38.54-.16.15-.34.28-.56.37s-.44.14-.68.14-.46-.05-.67-.14-.39-.21-.54-.37c-.15-.15-.28-.33-.37-.54-.09-.21-.14-.43-.14-.66s.04-.47.14-.68c.09-.21.21-.4.37-.55.15-.15.33-.28.54-.37s.43-.14.67-.14.47.05.68.14.4.21.56.37c.16.15.28.34.38.55.09.21.14.44.14.68ZM419,243.87v11.29h-2.72v-11.29h2.72Z"/>
      <path class="cls-1" d="M430,246.26c-.08.1-.16.18-.24.24-.08.06-.19.09-.34.09-.14,0-.27-.04-.41-.13-.13-.08-.29-.18-.47-.29-.18-.11-.4-.2-.65-.29-.25-.08-.57-.13-.94-.13-.48,0-.89.09-1.25.26-.36.17-.66.42-.9.74s-.42.71-.53,1.17c-.12.46-.18.98-.18,1.56s.06,1.14.19,1.61c.13.47.31.86.55,1.18.24.32.54.56.88.73s.73.25,1.17.25.78-.05,1.05-.16.49-.22.68-.35c.18-.13.34-.25.48-.35.14-.11.29-.16.46-.16.22,0,.39.08.5.25l.78.99c-.3.35-.63.65-.98.89-.35.24-.72.43-1.09.57-.38.14-.77.24-1.17.3-.4.06-.8.09-1.2.09-.7,0-1.35-.13-1.97-.39s-1.15-.64-1.61-1.14c-.46-.5-.82-1.11-1.09-1.83s-.4-1.55-.4-2.47c0-.83.12-1.6.36-2.3.24-.71.59-1.32,1.05-1.84.46-.52,1.03-.92,1.72-1.22.68-.29,1.47-.44,2.35-.44s1.58.14,2.22.41c.63.27,1.2.66,1.71,1.17l-.71.99Z"/>
      <path class="cls-1" d="M432.56,255.16v-16.35h2.72v6.28c.44-.42.92-.76,1.45-1.01.53-.26,1.15-.38,1.86-.38.62,0,1.16.1,1.64.31s.87.5,1.19.88c.32.38.56.83.73,1.35s.25,1.1.25,1.73v7.18h-2.72v-7.18c0-.69-.16-1.22-.48-1.6-.32-.38-.8-.57-1.44-.57-.47,0-.91.11-1.32.32-.41.21-.8.5-1.17.87v8.16h-2.72Z"/>
      <path class="cls-1" d="M449.31,255.16v-16.35h2.72v6.28c.44-.42.92-.76,1.45-1.01.53-.26,1.15-.38,1.86-.38.62,0,1.16.1,1.64.31s.87.5,1.19.88c.32.38.56.83.73,1.35s.25,1.1.25,1.73v7.18h-2.72v-7.18c0-.69-.16-1.22-.48-1.6-.32-.38-.8-.57-1.44-.57-.47,0-.91.11-1.32.32-.41.21-.8.5-1.17.87v8.16h-2.72Z"/>
      <path class="cls-1" d="M466.64,243.69c.84,0,1.61.14,2.29.41.69.27,1.27.66,1.75,1.16.48.5.86,1.11,1.12,1.83.26.72.4,1.52.4,2.41s-.13,1.7-.4,2.42c-.26.72-.64,1.33-1.12,1.84-.48.51-1.07.9-1.75,1.17-.69.27-1.45.41-2.29.41s-1.61-.14-2.3-.41c-.69-.27-1.28-.66-1.77-1.17-.49-.51-.87-1.12-1.13-1.84-.27-.72-.4-1.52-.4-2.42s.13-1.69.4-2.41c.27-.72.65-1.33,1.13-1.83.49-.5,1.08-.88,1.77-1.16.69-.27,1.46-.41,2.3-.41ZM466.64,253.23c.94,0,1.63-.32,2.08-.95.45-.63.68-1.55.68-2.77s-.23-2.15-.68-2.78c-.45-.64-1.15-.96-2.08-.96s-1.66.32-2.11.96c-.46.64-.68,1.57-.68,2.78s.23,2.13.68,2.77c.45.63,1.16.95,2.11.95Z"/>
      <path class="cls-1" d="M482.26,246.26c-.08.1-.16.18-.24.24-.08.06-.19.09-.34.09-.14,0-.27-.04-.41-.13-.13-.08-.29-.18-.47-.29-.18-.11-.4-.2-.65-.29-.25-.08-.57-.13-.94-.13-.48,0-.89.09-1.25.26-.36.17-.66.42-.9.74s-.42.71-.53,1.17c-.12.46-.18.98-.18,1.56s.06,1.14.19,1.61c.13.47.31.86.55,1.18.24.32.54.56.88.73s.73.25,1.17.25.78-.05,1.05-.16.49-.22.68-.35c.18-.13.34-.25.48-.35.14-.11.29-.16.46-.16.22,0,.39.08.5.25l.78.99c-.3.35-.63.65-.98.89-.35.24-.72.43-1.09.57-.38.14-.77.24-1.17.3-.4.06-.8.09-1.2.09-.7,0-1.35-.13-1.97-.39s-1.15-.64-1.61-1.14c-.46-.5-.82-1.11-1.09-1.83s-.4-1.55-.4-2.47c0-.83.12-1.6.36-2.3.24-.71.59-1.32,1.05-1.84.46-.52,1.03-.92,1.72-1.22.68-.29,1.47-.44,2.35-.44s1.58.14,2.22.41c.63.27,1.2.66,1.71,1.17l-.71.99Z"/>
      <path class="cls-1" d="M484.82,255.16v-16.35h2.72v6.28c.44-.42.92-.76,1.45-1.01.53-.26,1.15-.38,1.86-.38.62,0,1.16.1,1.64.31s.87.5,1.19.88c.32.38.56.83.73,1.35s.25,1.1.25,1.73v7.18h-2.72v-7.18c0-.69-.16-1.22-.48-1.6-.32-.38-.8-.57-1.44-.57-.47,0-.91.11-1.32.32-.41.21-.8.5-1.17.87v8.16h-2.72Z"/>
      <path class="cls-1" d="M506.17,255.16h-1.22c-.26,0-.46-.04-.61-.12-.15-.08-.26-.23-.33-.47l-.24-.8c-.29.26-.57.48-.84.68-.28.19-.56.36-.85.49-.29.13-.61.23-.94.3-.33.07-.7.1-1.1.1-.48,0-.92-.06-1.32-.19s-.75-.32-1.04-.58c-.29-.26-.52-.58-.68-.96-.16-.38-.24-.83-.24-1.34,0-.43.11-.85.34-1.26s.6-.79,1.12-1.13c.52-.33,1.21-.61,2.08-.83s1.94-.33,3.22-.33v-.67c0-.76-.16-1.32-.48-1.69-.32-.37-.78-.55-1.39-.55-.44,0-.81.05-1.1.15-.29.1-.55.22-.76.35-.22.13-.42.24-.6.35-.18.1-.38.15-.6.15-.18,0-.34-.05-.47-.14-.13-.1-.24-.21-.32-.35l-.5-.87c1.3-1.19,2.86-1.78,4.7-1.78.66,0,1.25.11,1.77.32.52.22.96.52,1.31.9.36.39.63.85.82,1.38.19.54.28,1.12.28,1.76v7.13ZM500.89,253.46c.28,0,.54-.03.77-.08.23-.05.46-.13.67-.23s.41-.23.61-.37.39-.32.59-.53v-1.89c-.79,0-1.45.05-1.99.15-.53.1-.96.23-1.28.38-.32.16-.55.34-.69.54-.14.21-.2.43-.2.68,0,.48.14.82.42,1.03.28.21.65.31,1.11.31Z"/>
      <path class="cls-1" d="M511.33,243.87v7.17c0,.69.16,1.22.48,1.6.32.38.8.57,1.44.57.47,0,.91-.1,1.32-.31.41-.21.8-.5,1.17-.86v-8.16h2.72v11.29h-1.66c-.35,0-.58-.17-.69-.5l-.19-.9c-.23.23-.48.45-.73.64s-.52.36-.8.5-.59.24-.91.32-.68.12-1.05.12c-.62,0-1.16-.1-1.63-.31s-.87-.5-1.19-.89c-.32-.38-.57-.83-.73-1.36s-.25-1.1-.25-1.73v-7.17h2.72Z"/>
      <path class="cls-1" d="M521.84,255.16v-9.24l-.98-.15c-.21-.04-.38-.11-.51-.22-.13-.11-.19-.26-.19-.46v-1.11h1.68v-.84c0-.65.1-1.22.29-1.74.19-.51.47-.95.84-1.31s.8-.63,1.33-.83c.52-.19,1.11-.29,1.76-.29.52,0,1,.07,1.45.21l-.05,1.36c-.01.21-.11.34-.3.4s-.4.08-.64.08c-.32,0-.61.03-.86.1-.25.07-.47.19-.64.36-.18.17-.31.4-.4.68s-.14.63-.14,1.05v.75h2.94v1.94h-2.85v9.25h-2.72Z"/>
      <path class="cls-1" d="M532.97,243.67c.48,0,.94.05,1.36.15.43.1.81.24,1.17.43h3.25v1.01c0,.17-.04.3-.13.4-.09.1-.24.16-.45.2l-1.01.19c.07.19.13.39.17.6.04.21.06.44.06.67,0,.56-.11,1.06-.33,1.51-.22.45-.53.83-.92,1.15-.39.32-.86.56-1.4.73s-1.12.26-1.75.26c-.43,0-.84-.04-1.24-.12-.35.21-.53.45-.53.72,0,.23.1.4.31.5s.48.18.83.23.73.07,1.16.07.88.02,1.33.06c.46.04.9.1,1.33.19s.82.24,1.16.44c.34.2.62.47.83.81.21.34.31.78.31,1.32,0,.5-.12.99-.37,1.46-.25.47-.6.89-1.07,1.26-.47.37-1.04.66-1.71.89s-1.45.34-2.31.34-1.6-.08-2.23-.25-1.15-.39-1.57-.66c-.42-.27-.72-.59-.93-.95s-.31-.73-.31-1.12c0-.53.16-.97.48-1.33.32-.36.77-.65,1.34-.86-.28-.15-.5-.36-.67-.62s-.25-.59-.25-1c0-.17.03-.34.09-.52s.15-.36.27-.53c.12-.18.27-.34.46-.5.18-.16.4-.3.65-.42-.57-.31-1.02-.72-1.35-1.23s-.49-1.11-.49-1.8c0-.56.11-1.06.34-1.51.22-.45.54-.84.93-1.15s.87-.56,1.42-.73c.55-.17,1.14-.25,1.79-.25ZM535.95,255.63c0-.22-.07-.41-.2-.55-.13-.14-.31-.25-.54-.33-.23-.08-.49-.14-.8-.17-.3-.04-.63-.06-.97-.06h-1.06c-.36,0-.71-.04-1.05-.12-.31.17-.55.37-.74.6-.19.23-.28.5-.28.8,0,.2.05.38.15.56s.26.32.47.45c.22.12.5.22.84.29.34.07.77.1,1.26.1s.94-.04,1.31-.12c.37-.08.67-.19.91-.33s.41-.3.52-.49c.11-.19.17-.4.17-.62ZM532.97,249.24c.34,0,.63-.05.88-.14.25-.09.46-.22.62-.38.17-.16.29-.36.37-.58.08-.23.13-.48.13-.75,0-.56-.17-1-.5-1.33s-.83-.49-1.5-.49-1.17.16-1.5.49-.5.77-.5,1.33c0,.26.04.51.13.74.08.23.21.42.37.59s.37.29.63.38c.25.09.54.14.88.14Z"/>
      <path class="cls-1" d="M545.11,243.69c.71,0,1.37.11,1.96.34.6.23,1.11.56,1.55,1,.43.44.77.97,1.01,1.61s.36,1.36.36,2.17c0,.21,0,.38-.03.51-.02.14-.05.24-.1.32-.05.08-.11.13-.19.17-.08.03-.18.05-.31.05h-6.97c.08,1.16.39,2.01.93,2.55.54.54,1.26.81,2.16.81.44,0,.82-.05,1.14-.15.32-.1.6-.22.84-.34.24-.12.45-.24.63-.34s.35-.15.52-.15c.11,0,.21.02.29.07.08.04.15.11.21.19l.79.99c-.3.35-.64.65-1.01.89s-.76.43-1.17.57c-.41.14-.82.24-1.24.3-.42.06-.83.09-1.23.09-.79,0-1.51-.13-2.19-.39s-1.26-.65-1.76-1.15-.89-1.14-1.18-1.89c-.29-.75-.43-1.62-.43-2.61,0-.77.12-1.49.37-2.17.25-.68.61-1.27,1.07-1.77.47-.5,1.03-.9,1.71-1.19s1.43-.44,2.27-.44ZM545.17,245.64c-.79,0-1.41.22-1.86.67-.45.45-.73,1.08-.86,1.9h5.1c0-.35-.05-.68-.14-1-.1-.31-.24-.58-.44-.82-.2-.23-.45-.42-.75-.56s-.65-.2-1.06-.2Z"/>
      <path class="cls-1" d="M555.1,238.81v16.35h-2.72v-16.35h2.72Z"/>
      <path class="cls-1" d="M562.99,243.69c.84,0,1.61.14,2.29.41.69.27,1.27.66,1.75,1.16.48.5.86,1.11,1.12,1.83.26.72.4,1.52.4,2.41s-.13,1.7-.4,2.42c-.26.72-.64,1.33-1.12,1.84-.48.51-1.07.9-1.75,1.17-.69.27-1.45.41-2.29.41s-1.61-.14-2.3-.41c-.69-.27-1.28-.66-1.77-1.17-.49-.51-.87-1.12-1.13-1.84-.27-.72-.4-1.52-.4-2.42s.13-1.69.4-2.41c.27-.72.65-1.33,1.13-1.83.49-.5,1.08-.88,1.77-1.16.69-.27,1.46-.41,2.3-.41ZM562.46,240.94c0,.21-.04.4-.12.58-.08.18-.19.34-.34.47-.14.13-.31.24-.5.31-.19.08-.38.12-.59.12s-.39-.04-.57-.12-.34-.18-.48-.31c-.14-.13-.25-.29-.33-.47-.08-.18-.12-.37-.12-.58s.04-.41.12-.6c.08-.19.19-.35.33-.49.14-.14.3-.25.48-.33s.37-.12.57-.12.4.04.59.12c.19.08.35.19.5.33.14.14.25.3.34.49.08.19.12.39.12.6ZM562.99,253.23c.94,0,1.63-.32,2.08-.95.45-.63.68-1.55.68-2.77s-.23-2.15-.68-2.78c-.45-.64-1.15-.96-2.08-.96s-1.66.32-2.11.96c-.46.64-.68,1.57-.68,2.78s.23,2.13.68,2.77c.45.63,1.16.95,2.11.95ZM566.57,240.94c0,.21-.04.4-.12.58-.08.18-.19.34-.33.47-.14.13-.3.24-.49.31-.19.08-.38.12-.59.12s-.4-.04-.58-.12c-.18-.08-.34-.18-.48-.31s-.24-.29-.32-.47c-.08-.18-.12-.37-.12-.58s.04-.41.12-.6c.08-.19.19-.35.32-.49.14-.14.29-.25.48-.33.18-.08.38-.12.58-.12s.4.04.59.12c.19.08.35.19.49.33.14.14.25.3.33.49.08.19.12.39.12.6Z"/>
      <path class="cls-1" d="M577.37,246.07c-.07.12-.15.2-.23.25s-.18.07-.31.07c-.13,0-.27-.04-.42-.11s-.32-.16-.52-.25-.42-.17-.68-.25-.55-.11-.9-.11c-.54,0-.96.11-1.26.34-.31.23-.46.52-.46.89,0,.24.08.45.24.61.16.17.37.31.63.43.26.12.56.24.89.34.33.1.67.21,1.01.32s.68.25,1.01.4.62.34.89.57c.26.23.47.51.63.83.16.32.24.71.24,1.17,0,.54-.1,1.04-.3,1.5-.2.46-.49.85-.87,1.19-.38.33-.85.59-1.41.78-.56.19-1.21.28-1.93.28-.39,0-.77-.03-1.14-.1-.37-.07-.73-.17-1.07-.29-.34-.12-.66-.27-.95-.44-.29-.17-.54-.35-.76-.55l.63-1.03c.08-.12.18-.22.29-.29.11-.07.25-.1.42-.1s.33.05.48.14.32.2.52.31c.2.11.43.21.7.31.27.1.61.14,1.02.14.32,0,.6-.04.83-.12.23-.08.42-.18.57-.3.15-.12.26-.27.33-.43.07-.17.1-.34.1-.51,0-.26-.08-.48-.24-.65-.16-.17-.37-.31-.63-.44-.26-.12-.56-.24-.89-.34-.33-.1-.67-.21-1.02-.32s-.69-.25-1.02-.41c-.33-.16-.63-.36-.89-.6-.26-.24-.47-.54-.63-.89-.16-.35-.24-.78-.24-1.28,0-.46.09-.9.28-1.32.18-.42.45-.78.81-1.09.36-.31.8-.56,1.33-.75.53-.19,1.15-.28,1.84-.28.78,0,1.49.13,2.12.38.64.26,1.17.59,1.59,1.01l-.62.98Z"/>
      <path class="cls-1" d="M584,255.33c-.98,0-1.73-.28-2.25-.83-.53-.55-.79-1.32-.79-2.29v-6.3h-1.14c-.15,0-.27-.05-.38-.14-.11-.1-.16-.24-.16-.43v-1.08l1.82-.3.57-3.08c.03-.15.1-.26.2-.34.11-.08.24-.12.4-.12h1.41v3.55h2.97v1.94h-2.97v6.12c0,.35.09.63.26.82.18.2.41.3.7.3.17,0,.31-.02.42-.06.11-.04.21-.08.3-.13.08-.04.16-.09.23-.13.07-.04.13-.06.2-.06.08,0,.15.02.2.06.05.04.11.1.17.18l.81,1.32c-.4.33-.85.58-1.36.75-.51.17-1.04.25-1.59.25Z"/>
      <path class="cls-1" d="M593.47,243.69c.71,0,1.37.11,1.96.34.6.23,1.11.56,1.55,1,.43.44.77.97,1.01,1.61s.36,1.36.36,2.17c0,.21,0,.38-.03.51-.02.14-.05.24-.1.32-.05.08-.11.13-.19.17-.08.03-.18.05-.31.05h-6.97c.08,1.16.39,2.01.93,2.55.54.54,1.26.81,2.16.81.44,0,.82-.05,1.14-.15.32-.1.6-.22.84-.34.24-.12.45-.24.63-.34s.35-.15.52-.15c.11,0,.21.02.29.07.08.04.15.11.21.19l.79.99c-.3.35-.64.65-1.01.89s-.76.43-1.17.57c-.41.14-.82.24-1.24.3-.42.06-.83.09-1.23.09-.79,0-1.51-.13-2.19-.39s-1.26-.65-1.76-1.15-.89-1.14-1.18-1.89c-.29-.75-.43-1.62-.43-2.61,0-.77.12-1.49.37-2.17.25-.68.61-1.27,1.07-1.77.47-.5,1.03-.9,1.71-1.19s1.43-.44,2.27-.44ZM593.52,245.64c-.79,0-1.41.22-1.86.67-.45.45-.73,1.08-.86,1.9h5.1c0-.35-.05-.68-.14-1-.1-.31-.24-.58-.44-.82-.2-.23-.45-.42-.75-.56s-.65-.2-1.06-.2Z"/>
      <path class="cls-1" d="M600.56,255.16v-11.29h1.66c.35,0,.58.17.69.5l.19.89c.23-.23.47-.45.72-.64.25-.19.52-.36.8-.5.28-.14.58-.25.91-.32.32-.07.67-.11,1.06-.11.62,0,1.16.1,1.64.31s.87.5,1.19.88c.32.38.56.83.73,1.35s.25,1.1.25,1.73v7.18h-2.72v-7.18c0-.69-.16-1.22-.48-1.6-.32-.38-.8-.57-1.44-.57-.47,0-.91.11-1.32.32-.41.21-.8.5-1.17.87v8.16h-2.72Z"/>
      <path class="cls-1" d="M625.8,249.29c.11.25.21.51.31.76.1-.26.21-.52.32-.78.11-.26.23-.5.35-.74l4.71-8.81c.06-.11.12-.2.18-.26.06-.07.13-.11.21-.14s.16-.05.26-.06c.09,0,.21-.01.34-.01h2.23v15.91h-2.61v-10.27c0-.19,0-.4.02-.63.01-.23.03-.46.05-.69l-4.81,9.02c-.11.21-.25.37-.43.48-.18.11-.38.17-.62.17h-.41c-.23,0-.44-.06-.62-.17-.18-.11-.32-.27-.43-.48l-4.87-9.05c.03.24.05.48.06.71s.02.45.02.64v10.27h-2.61v-15.91h2.23c.13,0,.25,0,.34.01.1,0,.18.03.26.06s.15.08.21.14c.07.07.13.15.19.26l4.75,8.83c.12.23.24.48.35.73Z"/>
      <path class="cls-1" d="M642.44,243.69c.71,0,1.37.11,1.96.34.6.23,1.11.56,1.55,1,.43.44.77.97,1.01,1.61s.36,1.36.36,2.17c0,.21,0,.38-.03.51-.02.14-.05.24-.1.32-.05.08-.11.13-.19.17-.08.03-.18.05-.31.05h-6.97c.08,1.16.39,2.01.93,2.55.54.54,1.26.81,2.16.81.44,0,.82-.05,1.14-.15.32-.1.6-.22.84-.34.24-.12.45-.24.63-.34s.35-.15.52-.15c.11,0,.21.02.29.07.08.04.15.11.21.19l.79.99c-.3.35-.64.65-1.01.89s-.76.43-1.17.57c-.41.14-.82.24-1.24.3-.42.06-.83.09-1.23.09-.79,0-1.51-.13-2.19-.39s-1.26-.65-1.76-1.15-.89-1.14-1.18-1.89c-.29-.75-.43-1.62-.43-2.61,0-.77.12-1.49.37-2.17.25-.68.61-1.27,1.07-1.77.47-.5,1.03-.9,1.71-1.19s1.43-.44,2.27-.44ZM642.49,245.64c-.79,0-1.41.22-1.86.67-.45.45-.73,1.08-.86,1.9h5.1c0-.35-.05-.68-.14-1-.1-.31-.24-.58-.44-.82-.2-.23-.45-.42-.75-.56s-.65-.2-1.06-.2Z"/>
      <path class="cls-1" d="M656.23,246.07c-.07.12-.15.2-.23.25s-.18.07-.31.07c-.13,0-.27-.04-.42-.11s-.32-.16-.52-.25-.42-.17-.68-.25-.55-.11-.9-.11c-.54,0-.96.11-1.26.34-.31.23-.46.52-.46.89,0,.24.08.45.24.61.16.17.37.31.63.43.26.12.56.24.89.34.33.1.67.21,1.01.32s.68.25,1.01.4.62.34.89.57c.26.23.47.51.63.83.16.32.24.71.24,1.17,0,.54-.1,1.04-.3,1.5-.2.46-.49.85-.87,1.19-.38.33-.85.59-1.41.78-.56.19-1.21.28-1.93.28-.39,0-.77-.03-1.14-.1-.37-.07-.73-.17-1.07-.29-.34-.12-.66-.27-.95-.44-.29-.17-.54-.35-.76-.55l.63-1.03c.08-.12.18-.22.29-.29.11-.07.25-.1.42-.1s.33.05.48.14.32.2.52.31c.2.11.43.21.7.31.27.1.61.14,1.02.14.32,0,.6-.04.83-.12.23-.08.42-.18.57-.3.15-.12.26-.27.33-.43.07-.17.1-.34.1-.51,0-.26-.08-.48-.24-.65-.16-.17-.37-.31-.63-.44-.26-.12-.56-.24-.89-.34-.33-.1-.67-.21-1.02-.32s-.69-.25-1.02-.41c-.33-.16-.63-.36-.89-.6-.26-.24-.47-.54-.63-.89-.16-.35-.24-.78-.24-1.28,0-.46.09-.9.28-1.32.18-.42.45-.78.81-1.09.36-.31.8-.56,1.33-.75.53-.19,1.15-.28,1.84-.28.78,0,1.49.13,2.12.38.64.26,1.17.59,1.59,1.01l-.62.98Z"/>
      <path class="cls-1" d="M665.85,246.07c-.07.12-.15.2-.23.25s-.18.07-.31.07c-.13,0-.27-.04-.42-.11s-.32-.16-.52-.25-.42-.17-.68-.25-.55-.11-.9-.11c-.54,0-.96.11-1.26.34-.31.23-.46.52-.46.89,0,.24.08.45.24.61.16.17.37.31.63.43.26.12.56.24.89.34.33.1.67.21,1.01.32s.68.25,1.01.4.62.34.89.57c.26.23.47.51.63.83.16.32.24.71.24,1.17,0,.54-.1,1.04-.3,1.5-.2.46-.49.85-.87,1.19-.38.33-.85.59-1.41.78-.56.19-1.21.28-1.93.28-.39,0-.77-.03-1.14-.1-.37-.07-.73-.17-1.07-.29-.34-.12-.66-.27-.95-.44-.29-.17-.54-.35-.76-.55l.63-1.03c.08-.12.18-.22.29-.29.11-.07.25-.1.42-.1s.33.05.48.14.32.2.52.31c.2.11.43.21.7.31.27.1.61.14,1.02.14.32,0,.6-.04.83-.12.23-.08.42-.18.57-.3.15-.12.26-.27.33-.43.07-.17.1-.34.1-.51,0-.26-.08-.48-.24-.65-.16-.17-.37-.31-.63-.44-.26-.12-.56-.24-.89-.34-.33-.1-.67-.21-1.02-.32s-.69-.25-1.02-.41c-.33-.16-.63-.36-.89-.6-.26-.24-.47-.54-.63-.89-.16-.35-.24-.78-.24-1.28,0-.46.09-.9.28-1.32.18-.42.45-.78.81-1.09.36-.31.8-.56,1.33-.75.53-.19,1.15-.28,1.84-.28.78,0,1.49.13,2.12.38.64.26,1.17.59,1.59,1.01l-.62.98Z"/>
      <path class="cls-1" d="M676.7,255.16c-.35,0-.58-.17-.69-.5l-.22-1.09c-.24.26-.48.5-.74.71-.26.21-.53.4-.83.55-.3.15-.62.27-.96.36-.34.08-.71.13-1.11.13-.62,0-1.18-.13-1.69-.39-.51-.26-.96-.63-1.33-1.12-.37-.49-.66-1.09-.86-1.81-.2-.72-.3-1.54-.3-2.46,0-.84.11-1.61.34-2.33s.55-1.34.98-1.87c.42-.53.93-.94,1.53-1.24s1.26-.45,2-.45c.63,0,1.17.1,1.62.3s.85.47,1.2.81v-5.96h2.72v16.35h-1.66ZM673.08,253.16c.56,0,1.04-.12,1.44-.35.4-.23.77-.57,1.12-1v-5.06c-.31-.37-.64-.64-1.01-.79-.36-.15-.75-.23-1.17-.23s-.78.08-1.12.23c-.33.15-.62.39-.85.7-.23.31-.41.71-.53,1.19-.12.48-.19,1.05-.19,1.7s.05,1.22.16,1.68c.11.46.26.83.46,1.12.2.29.44.5.73.63.29.13.6.19.96.19Z"/>
      <path class="cls-1" d="M690.14,255.16h-1.22c-.26,0-.46-.04-.61-.12-.15-.08-.26-.23-.33-.47l-.24-.8c-.29.26-.57.48-.84.68-.28.19-.56.36-.85.49-.29.13-.61.23-.94.3-.33.07-.7.1-1.1.1-.48,0-.92-.06-1.32-.19s-.75-.32-1.04-.58c-.29-.26-.52-.58-.68-.96-.16-.38-.24-.83-.24-1.34,0-.43.11-.85.34-1.26s.6-.79,1.12-1.13c.52-.33,1.21-.61,2.08-.83s1.94-.33,3.22-.33v-.67c0-.76-.16-1.32-.48-1.69-.32-.37-.78-.55-1.39-.55-.44,0-.81.05-1.1.15-.29.1-.55.22-.76.35-.22.13-.42.24-.6.35-.18.1-.38.15-.6.15-.18,0-.34-.05-.47-.14-.13-.1-.24-.21-.32-.35l-.5-.87c1.3-1.19,2.86-1.78,4.7-1.78.66,0,1.25.11,1.77.32.52.22.96.52,1.31.9.36.39.63.85.82,1.38.19.54.28,1.12.28,1.76v7.13ZM684.86,253.46c.28,0,.54-.03.77-.08.23-.05.46-.13.67-.23s.41-.23.61-.37.39-.32.59-.53v-1.89c-.79,0-1.45.05-1.99.15-.53.1-.96.23-1.28.38-.32.16-.55.34-.69.54-.14.21-.2.43-.2.68,0,.48.14.82.42,1.03.28.21.65.31,1.11.31Z"/>
      <path class="cls-1" d="M696.52,255.33c-.98,0-1.73-.28-2.25-.83-.53-.55-.79-1.32-.79-2.29v-6.3h-1.14c-.15,0-.27-.05-.38-.14-.11-.1-.16-.24-.16-.43v-1.08l1.82-.3.57-3.08c.03-.15.1-.26.2-.34.11-.08.24-.12.4-.12h1.41v3.55h2.97v1.94h-2.97v6.12c0,.35.09.63.26.82.18.2.41.3.7.3.17,0,.31-.02.42-.06.11-.04.21-.08.3-.13.08-.04.16-.09.23-.13.07-.04.13-.06.2-.06.08,0,.15.02.2.06.05.04.11.1.17.18l.81,1.32c-.4.33-.85.58-1.36.75-.51.17-1.04.25-1.59.25Z"/>
      <path class="cls-1" d="M706,243.69c.71,0,1.37.11,1.96.34.6.23,1.11.56,1.55,1,.43.44.77.97,1.01,1.61s.36,1.36.36,2.17c0,.21,0,.38-.03.51-.02.14-.05.24-.1.32-.05.08-.11.13-.19.17-.08.03-.18.05-.31.05h-6.97c.08,1.16.39,2.01.93,2.55.54.54,1.26.81,2.16.81.44,0,.82-.05,1.14-.15.32-.1.6-.22.84-.34.24-.12.45-.24.63-.34s.35-.15.52-.15c.11,0,.21.02.29.07.08.04.15.11.21.19l.79.99c-.3.35-.64.65-1.01.89s-.76.43-1.17.57c-.41.14-.82.24-1.24.3-.42.06-.83.09-1.23.09-.79,0-1.51-.13-2.19-.39s-1.26-.65-1.76-1.15-.89-1.14-1.18-1.89c-.29-.75-.43-1.62-.43-2.61,0-.77.12-1.49.37-2.17.25-.68.61-1.27,1.07-1.77.47-.5,1.03-.9,1.71-1.19s1.43-.44,2.27-.44ZM706.05,245.64c-.79,0-1.41.22-1.86.67-.45.45-.73,1.08-.86,1.9h5.1c0-.35-.05-.68-.14-1-.1-.31-.24-.58-.44-.82-.2-.23-.45-.42-.75-.56s-.65-.2-1.06-.2Z"/>
      <path class="cls-1" d="M713.09,255.16v-11.29h1.66c.35,0,.58.17.69.5l.19.89c.23-.23.47-.45.72-.64.25-.19.52-.36.8-.5.28-.14.58-.25.91-.32.32-.07.67-.11,1.06-.11.62,0,1.16.1,1.64.31s.87.5,1.19.88c.32.38.56.83.73,1.35s.25,1.1.25,1.73v7.18h-2.72v-7.18c0-.69-.16-1.22-.48-1.6-.32-.38-.8-.57-1.44-.57-.47,0-.91.11-1.32.32-.41.21-.8.5-1.17.87v8.16h-2.72Z"/>
    </g>
  </g>
</svg>